<?xml version="1.0" encoding="UTF-8"?>
<svg id="Ebene_1" data-name="Ebene 1" xmlns="http://www.w3.org/2000/svg" version="1.1" viewBox="0 0 286.7 250">
  <defs>
    <style>
      .cls-1 {
        fill: #9f616a;
      }

      .cls-1, .cls-2, .cls-3, .cls-4, .cls-5, .cls-6, .cls-7, .cls-8, .cls-9 {
        stroke-width: 0px;
      }

      .cls-2 {
        fill: #3f3d56;
      }

      .cls-3 {
        fill: #2f2e41;
      }

      .cls-4 {
        fill: #1bbc9c;
      }

      .cls-5 {
        fill: #fff;
      }

      .cls-6 {
        fill: #e4e4e4;
      }

      .cls-7 {
        fill: #cbcbcb;
      }

      .cls-8 {
        fill: #f0f0f0;
      }

      .cls-9 {
        fill: #ffb7b7;
      }
    </style>
  </defs>
  <path class="cls-5" d="M47.5,87c-.7,0-1.3,0-2,0-.2,0-.5.1-.5.4l-1.3,9.7c0,.7-.4,1.4-.8,1.9-.7.9-1.1,2-.9,3.2v16.4s0,2.2,1.6,2.2c2,.3,4,.3,6.1,0,0,0,1.3-.3,1.3-2.3v-16.2c.2-1.1,0-2.3-.8-3.2-.4-.6-.7-1.2-.8-1.9l-1.3-9.9c0-.2-.2-.4-.5-.4Z"/>
  <path class="cls-2" d="M46.6,121.3c-1,0-2,0-3-.2-.5,0-.9-.2-1.2-.5-.7-.7-.6-1.9-.6-2v-16.4c-.1-1.2.2-2.4,1-3.4.4-.5.7-1.1.8-1.8l1.3-9.7c0-.4.4-.7.8-.6.7,0,1.3,0,2,0h0c.4,0,.7.2.8.6l1.3,9.9c0,.6.4,1.3.8,1.8.8,1,1.1,2.2.9,3.4v16.1c0,2.2-1.6,2.5-1.6,2.5-1,.1-2.1.2-3.1.2ZM45.5,87.4c0,0-.2,0-.2.1l-1.3,9.7c-.1.8-.4,1.5-.9,2.1-.7.8-1,1.9-.9,3h0v16.4s0,1,.5,1.6c.2.2.5.3.8.3h0c2,.3,4,.3,6,0,0,0,1.1-.3,1.1-2v-16.2c.2-1.1,0-2.2-.8-3-.5-.6-.8-1.3-.9-2l-1.3-9.9c0,0,0-.1-.2-.1-.7,0-1.4,0-2.1,0,0,0,0,0,0,0h0Z"/>
  <path class="cls-4" d="M45.5,102.5h2c1.7,0,3.1,1.4,3.1,3.1v7.7c0,1.7-1.4,3.1-3.1,3.1h-2c-1.7,0-3.1-1.4-3.1-3.1h0v-7.7c0-1.7,1.4-3.1,3.1-3.1h0Z"/>
  <polygon class="cls-1" points="8 243.6 14.6 243.6 17.8 217.9 8 217.9 8 243.6"/>
  <path class="cls-3" d="M6.3,241.4h13.1s0,0,0,0c4.6,0,8.4,3.7,8.4,8.4v.3H6.3s0-8.6,0-8.6Z"/>
  <path class="cls-3" d="M3.8,151.9s-2.9,3.3,1.9,16l-.8,69.7,15.5-.3,3.4-34,6.2-49.6-26.1-1.8Z"/>
  <path class="cls-2" d="M35.2,161.5h-.2c-19.8-3-34.7-5.9-34.9-6H0s5.2-12.7,5.2-12.7c0-1.3-1.2-38.4,1-49,2.1-10.3,11.9-12,13-12.1l1.1-3.7,14.2,7.4,2.5,8.5.5,23.3-2.2,44.3Z"/>
  <path class="cls-1" d="M43.8,113.5c-1.3,0-2.5.5-3.4,1.5h-23.8l-8.7,1.9,1.4,11.1,31.1-6.7c1.7,1.9,4.6,2.1,6.6.4,1.9-1.7,2.1-4.6.4-6.6-.9-1-2.1-1.6-3.5-1.6h0Z"/>
  <circle class="cls-1" cx="33.9" cy="68.3" r="11.5"/>
  <path class="cls-3" d="M23.1,59.1l-.6-1.1,2.8-1.4s3.1-5,8.7-3.6,8.1,2.3,8.1,2.3l2.8,1.4-1.4,1.4,2.5.8-1.7.8,2,1.1-1.1,5.8s-1.7-4.4-5.1-2.7-9.5-.9-9.5-.9l-5.3,10.3s-1.1-3.6-3.1-2.7c0,0-5-8,.9-11.6Z"/>
  <path class="cls-2" d="M9.4,130l-2.7-8.1-.7-27,1.2-3.8c1.7-5.7,7.7-8.9,13.4-7.2,5.7,1.7,8.9,7.7,7.2,13.4,0,.3-.2.5-.3.8l-6.2,16,.3.6h13.5c0-.1,4.8,8.5,4.8,8.5l-30.4,6.9Z"/>
  <path class="cls-9" d="M144.4,126.6c1.9-1.3,2.4-3.9,1.1-5.8-.1-.2-.3-.4-.5-.6l6.6-13.2-7.6.9-5.1,12.4c-1.5,1.7-1.4,4.3.3,5.9,1.4,1.3,3.6,1.4,5.2.4Z"/>
  <polygon class="cls-9" points="197.7 219.9 191.7 219.9 188.8 196.8 197.7 196.8 197.7 219.9"/>
  <path class="cls-3" d="M199.2,225.7h-19.3v-.2c0-4.2,3.4-7.5,7.5-7.5h11.8s0,7.8,0,7.8Z"/>
  <polygon class="cls-9" points="164.9 219.9 158.9 219.9 156.1 196.8 164.9 196.8 164.9 219.9"/>
  <path class="cls-3" d="M165,225.7h-19.3v-.2c0-4.2,3.4-7.5,7.5-7.5h11.8s0,7.8,0,7.8Z"/>
  <polygon class="cls-3" points="164.5 122.3 158.6 135.8 153.7 213.5 166 213 169.3 176 179.6 143 185.5 179.8 188 212 198.1 212.5 202.1 122.3 164.5 122.3"/>
  <path class="cls-4" d="M193.8,55.6l-17,.4-10,5.1-.5,37.8-6.2,26.1s38.9,2.7,44.3-1.2l-6.4-29.8,8.5-32.2-12.7-6.2Z"/>
  <path class="cls-4" d="M169.4,61.8l-1.6-1.1s-6.6,2-8.5,10.7c0,0-1.5,4.4-2.1,7.4-.7,3.5-17.2,35.2-17.2,35.2l9.9,2.8,18.1-29.3,1.5-25.8Z"/>
  <path class="cls-9" d="M206.2,131.5c-1.5-1.8-1.2-4.4.5-5.8.2-.2.4-.3.6-.4l-2.8-14.5,7.1,2.9,1.5,13.3c1,2.1.2,4.6-1.9,5.6-1.7.8-3.8.4-5.1-1.1Z"/>
  <path class="cls-4" d="M203.9,62.3l1.8-.6s5.8,3.7,5.2,12.6c0,0,.2,4.6,0,7.7-.2,3.5,2.9,38.6,2.9,38.6h-10.3l-4.4-31.8,4.7-26.6Z"/>
  <path class="cls-9" d="M197.9,39.8c0,6.5-5.3,11.8-11.8,11.8s-11.8-5.3-11.8-11.8,5.3-11.8,11.8-11.8h0c6.5,0,11.8,5.2,11.8,11.7,0,0,0,0,0,0Z"/>
  <path class="cls-3" d="M174.4,23.9c1.4-3,4.1-2.4,6.4-1.4,3-.7,5.8-2.6,9-1.5,3.1,4.6,13.7,3.2,11.4,10.7,0,1.8,3.4.7,2.8,3.7,1.8,5.6-6.4,16.3-11.1,14,1.2-2.1,3.8-7-.2-7.5-8.7,8.1-.9-15.4-11.8-8.5-3.6,3.3-8.5-6.2-6.4-9.5Z"/>
  <path class="cls-1" d="M208.3,132.7c2.1.4,4.2-.9,4.6-3.1,0-.2,0-.5,0-.7l29.6-27.9-6.7-5.3-27,29.1c-2.2,0-3.9,1.9-3.8,4.1,0,1.8,1.4,3.3,3.2,3.7h0Z"/>
  <path class="cls-7" d="M238.3,105.5l-5.8-6.7c-.6-.7-.5-1.8.2-2.5,0,0,.1-.1.2-.2l7.5-4.7c2.1-1.7,5.1-1.5,6.9.6,1.7,2.1,1.5,5.1-.6,6.9l-5.8,6.6c-.6.7-1.7.8-2.5.2,0,0-.1-.1-.2-.2h0Z"/>
  <polygon class="cls-1" points="222.9 243 215.6 243 212.2 215.1 222.9 215.1 222.9 243"/>
  <path class="cls-3" d="M224.7,250h-23.3v-.3c0-5,4.1-9.1,9.1-9.1h14.2s0,9.4,0,9.4Z"/>
  <polygon class="cls-1" points="280.7 243 273.5 243 270 215.1 280.7 215.1 280.7 243"/>
  <path class="cls-3" d="M282.5,250h-23.3v-.3c0-5,4.1-9.1,9.1-9.1h14.2s0,9.4,0,9.4Z"/>
  <path class="cls-3" d="M261.2,120.3l7.3-26.9-9.5-5.3h-13.2l-5.1,5.5s-8.6,6-6.5,12.6l3.4,15.1-5.1,23.9-25.8,35.8-6.1,35.2,24.1,6.3,26-51.2,12.6,56.7,23.5-1.2-8.1-68.8s-2.3-21-14.4-34l-3-3.6Z"/>
  <path class="cls-1" d="M276.3,144.2c1.5-1.5,1.5-4,0-5.5-.2-.2-.3-.3-.5-.4l-5.7-38.2-8.1,2.6,8.1,36.8c-1.1,1.9-.5,4.3,1.3,5.4,1.6.9,3.6.7,4.8-.6Z"/>
  <path class="cls-7" d="M271.5,106l-8.8,1c-1,.1-1.8-.6-1.9-1.5,0,0,0-.2,0-.3l.3-8.8c-.3-2.7,1.6-5.1,4.3-5.4,2.7-.3,5.1,1.6,5.4,4.3l2.3,8.5c.3.9-.3,1.9-1.2,2.2,0,0-.2,0-.3,0h0Z"/>
  <path class="cls-3" d="M237.7,80.4v-11.4c0-8.4,6.8-15.2,15.2-15.2s15.2,6.8,15.2,15.2v11.4c0,1.1-.9,2-2,2h-26.3c-1.1,0-2-.9-2-2Z"/>
  <circle class="cls-1" cx="249.8" cy="71" r="11.2"/>
  <path class="cls-3" d="M234.1,70c0-6.6,5.4-12,12-12h2.3c6.6,0,12,5.4,12,12v.2h-4.8l-1.6-4.6-.3,4.6h-2.5l-.8-2.3-.2,2.3h-16.1v-.2Z"/>
  <path class="cls-3" d="M248.7,83.7c-.5-.6-.5-1.5-.2-2.1,2.4-4.6,5.8-13,1.3-18.2l-.3-.4h13v19.5l-11.8,2.1c-.1,0-.2,0-.4,0-.7,0-1.3-.3-1.6-.8Z"/>
  <path class="cls-9" d="M129.4,94.1c-.2.2-.3.4-.5.5l-21.2-.5-2.5-4.5-7.3,2.8,3.6,8.4c.6,1.4,2,2.2,3.5,2l23.9-2.9c1.5,1.9,4.3,2.3,6.3.7s2.3-4.3.7-6.3c-1.5-1.9-4.3-2.3-6.3-.7-.1.1-.3.2-.4.4h0Z"/>
  <polygon class="cls-9" points="60.4 222.6 67.4 222.6 70.7 195.7 60.4 195.8 60.4 222.6"/>
  <path class="cls-3" d="M58.6,220.3h13.7s0,0,0,0c4.8,0,8.7,3.9,8.7,8.7v.3h-22.4s0-9,0-9Z"/>
  <polygon class="cls-9" points="123.6 222.4 130 219.7 122.5 193.7 113 197.8 123.6 222.4"/>
  <path class="cls-3" d="M121,221l12.6-5.4h0c4.4-1.9,9.6.2,11.5,4.6v.3c.1,0-20.5,8.8-20.5,8.8l-3.5-8.3Z"/>
  <polygon class="cls-9" points="94.2 99.9 94.7 108.1 80 109.7 64.6 111.3 69.2 98.9 94.2 99.9"/>
  <path class="cls-6" d="M94.7,102.9c-.2,0-16.8-6.5-27-1.2h-.3c0,.1-2-9.9-2-9.9l-1.2-21.5,7.5-3.6,2.1-4.7,14.1-.8,2.9,4,9.9,3.2-5.9,34.6h-.2Z"/>
  <path class="cls-6" d="M95.2,83.4l1.8-13.8,4-1.2h0c0,0,2.3.9,2.9,3.9.6,2.9,4.9,20.8,4.9,21v.2s-10,4-10,4l-3.5-14.1Z"/>
  <path class="cls-3" d="M118.4,217.7l13.4-2.7-21.4-59.1-7.3-20.2s-4.7-16.2-6.8-22.4l-1.3-8.4-30,3.3s-8.4,12.3-5.8,32.4l-1.2,75.4,13.4.7,11.2-76.1,19.7,41.7s6.2,17.8,10.7,21.7l5.4,13.7Z"/>
  <path class="cls-9" d="M77,111c-.2,0-.5,0-.7,0l-14-15.9,1.6-4.9-7-3.4-3.7,8.4c-.6,1.4-.2,3,.9,4l18.4,15.6c-.4,2.4,1.3,4.7,3.7,5.1,2.4.4,4.7-1.3,5.1-3.7.4-2.4-1.3-4.7-3.7-5.1-.2,0-.4,0-.6,0h0Z"/>
  <path class="cls-6" d="M55.6,89.2l5.5-15.6c.6-1.8,1.4-3,2.3-3.3.4-.2.8-.2,1.1,0l2.5,3.1,2.3,9.6-5.8,13.7-7.8-7.5Z"/>
  <path class="cls-3" d="M91.9,57.9h-24c-1,0-1.9-.8-1.9-1.9v-10.4c0-7.7,6.2-13.9,13.9-13.9s13.9,6.2,13.9,13.9h0v10.4c0,1-.8,1.9-1.9,1.9Z"/>
  <circle class="cls-9" cx="82.7" cy="47.5" r="10.2"/>
  <path class="cls-3" d="M97,46.7h-14.7l-.2-2.1-.8,2.1h-2.3l-.3-4.2-1.5,4.2h-4.4v-.2c0-6.1,4.9-11,11-11h2.1c6.1,0,11,4.9,11,11v.2Z"/>
  <path class="cls-3" d="M82.2,59.8c-.1,0-.2,0-.3,0l-10.8-1.9v-17.8h11.8l-.3.3c-4.1,4.8-1,12.5,1.2,16.6.3.6.3,1.4-.1,2-.3.5-.9.8-1.5.8Z"/>
  <path class="cls-5" d="M211.1,102.6c-.7,0-1.3,0-2,0-.2,0-.5.1-.5.4l-1.3,9.7c0,.7-.4,1.4-.8,1.9-.7.9-1.1,2-.9,3.2v16.4s0,2.2,1.6,2.2c2,.3,4,.3,6.1,0,0,0,1.3-.3,1.3-2.3v-16.2c.2-1.1,0-2.3-.8-3.2-.4-.6-.7-1.2-.8-1.9l-1.3-9.9c0-.2-.2-.4-.5-.4Z"/>
  <path class="cls-2" d="M210.2,136.8c-1,0-2,0-3-.2-.5,0-.9-.2-1.2-.5-.7-.7-.6-1.9-.6-2v-16.4c-.1-1.2.2-2.4,1-3.4.4-.5.7-1.1.8-1.8l1.3-9.7c0-.4.4-.7.8-.6.7,0,1.3,0,2,0h0c.4,0,.7.2.8.6l1.3,9.9c0,.6.4,1.3.8,1.8.8,1,1.1,2.2.9,3.4v16.1c0,2.2-1.6,2.5-1.6,2.5-1,.1-2.1.2-3.1.2ZM209,102.9c0,0-.2,0-.2.1l-1.3,9.7c-.1.8-.4,1.5-.9,2.1-.7.8-1,1.9-.9,3h0v16.4s0,1,.5,1.6c.2.2.5.3.8.3h0c2,.3,4,.3,6,0,0,0,1.1-.3,1.1-2v-16.2c.2-1.1,0-2.2-.8-3-.5-.6-.8-1.3-.9-2l-1.3-9.9c0,0,0-.1-.2-.1-.7,0-1.4,0-2.1,0,0,0,0,0,0,0Z"/>
  <path class="cls-4" d="M209.1,118.1h2c1.7,0,3.1,1.4,3.1,3.1h0v7.7c0,1.7-1.4,3.1-3.1,3.1h-2c-1.7,0-3.1-1.4-3.1-3.1h0v-7.7c0-1.7,1.4-3.1,3.1-3.1h0Z"/>
  <path class="cls-5" d="M141.8,89.3c-.7,0-1.3,0-2,0-.2,0-.5.1-.5.4l-1.3,9.7c0,.7-.4,1.4-.8,1.9-.7.9-1.1,2-.9,3.2v16.4s0,2.2,1.6,2.2c2,.3,4,.3,6.1,0,0,0,1.3-.3,1.3-2.3v-16.2c.2-1.1,0-2.3-.8-3.2-.4-.6-.7-1.2-.8-1.9l-1.3-9.9c0-.2-.2-.4-.5-.4Z"/>
  <path class="cls-2" d="M140.9,123.5c-1,0-2,0-3-.2-.5,0-.9-.2-1.2-.5-.7-.7-.6-1.9-.6-2v-16.4c-.1-1.2.2-2.4,1-3.4.4-.5.7-1.1.8-1.8l1.3-9.7c0-.4.4-.7.8-.6.7,0,1.3,0,2,0h0c.4,0,.7.2.8.6l1.3,9.9c0,.6.4,1.3.8,1.8.8,1,1.1,2.2.9,3.4v16.1c0,2.2-1.6,2.5-1.6,2.5-1,.1-2.1.2-3.1.2ZM139.8,89.6c0,0-.2,0-.2.1l-1.3,9.7c-.1.8-.4,1.5-.9,2.1-.7.8-1,1.9-.9,3h0v16.4s0,1,.5,1.6c.2.2.5.3.8.3h0c2,.3,4,.3,6,0,0,0,1.1-.3,1.1-2v-16.2c.2-1.1,0-2.2-.8-3-.5-.6-.8-1.3-.9-2l-1.3-9.9c0,0,0-.1-.2-.1-.7,0-1.4,0-2.1,0,0,0,0,0,0,0Z"/>
  <path class="cls-4" d="M139.8,104.8h2c1.7,0,3.1,1.4,3.1,3.1v7.7c0,1.7-1.4,3.1-3.1,3.1h-2c-1.7,0-3.1-1.4-3.1-3.1v-7.7c0-1.7,1.4-3.1,3.1-3.1h0Z"/>
  <path class="cls-5" d="M130.1,75.2c-.7,0-1.3,0-2,0-.2,0-.5.1-.5.4l-1.3,9.7c0,.7-.4,1.4-.8,1.9-.7.9-1.1,2-.9,3.2v16.4s0,2.2,1.6,2.2c2,.3,4,.3,6.1,0,0,0,1.3-.3,1.3-2.3v-16.2c.2-1.1,0-2.3-.8-3.2-.4-.6-.7-1.2-.8-1.9l-1.3-9.9c0-.2-.2-.4-.5-.4Z"/>
  <path class="cls-2" d="M129.2,109.4c-1,0-2,0-3-.2-.5,0-.9-.2-1.2-.5-.7-.7-.6-1.9-.6-2v-16.4c-.1-1.2.2-2.4,1-3.4.4-.5.7-1.1.8-1.8l1.3-9.7c0-.4.4-.7.8-.6.7,0,1.3,0,2,0h0c.4,0,.7.2.8.6l1.3,9.9c0,.6.4,1.3.8,1.8.8,1,1.1,2.2.9,3.4v16.1c0,2.2-1.6,2.5-1.6,2.5-1,.1-2.1.2-3.1.2ZM128.1,75.5c0,0-.2,0-.2.1l-1.3,9.7c-.1.8-.4,1.5-.9,2.1-.7.8-1,1.9-.9,3h0v16.4s0,1,.5,1.6c.2.2.5.3.8.3h0c2,.3,4,.3,6,0,0,0,1.1-.3,1.1-2v-16.2c.2-1.1,0-2.2-.8-3-.5-.6-.8-1.3-.9-2l-1.3-9.9c0,0,0-.1-.2-.1-.7,0-1.4,0-2.1,0,0,0,0,0,0,0Z"/>
  <path class="cls-4" d="M128.1,90.7h2c1.7,0,3.1,1.4,3.1,3.1v7.7c0,1.7-1.4,3.1-3.1,3.1h-2c-1.7,0-3.1-1.4-3.1-3.1v-7.7c0-1.7,1.4-3.1,3.1-3.1h0Z"/>
  <circle class="cls-8" cx="22" cy="18" r="9.8"/>
  <circle class="cls-8" cx="247" cy="10.1" r="9.8"/>
  <circle class="cls-8" cx="135.5" cy="37.2" r="7"/>
</svg>