<?xml version="1.0" encoding="UTF-8"?>
<svg id="Ebene_1" data-name="Ebene 1" xmlns="http://www.w3.org/2000/svg" version="1.1" viewBox="0 0 346.2 250">
  <defs>
    <style>
      .cls-1 {
        fill: none;
        stroke: #3f3d56;
        stroke-miterlimit: 10;
      }

      .cls-2 {
        fill: #3f3d56;
      }

      .cls-2, .cls-3, .cls-4, .cls-5, .cls-6, .cls-7, .cls-8, .cls-9 {
        stroke-width: 0px;
      }

      .cls-3 {
        fill: #2f2e41;
      }

      .cls-4 {
        fill: #e6e8ec;
      }

      .cls-5 {
        fill: #e6e6e6;
      }

      .cls-6 {
        fill: #000;
        isolation: isolate;
        opacity: .2;
      }

      .cls-7 {
        fill: #ffb6b6;
      }

      .cls-8 {
        fill: #1bbc9c;
      }

      .cls-9 {
        fill: #fff;
      }
    </style>
  </defs>
  <path class="cls-6" d="M89.1,145.9s.7,14.5-30.3,32.4t226.9,0s-25.9-18.4-27.6-39"/>
  <path class="cls-5" d="M257.2,135.5V13.4c3-.8,5.1-3.5,5.1-6.6h0c0-3.8-3-6.8-6.8-6.8H92c-3.8,0-6.8,3-6.8,6.8h0c0,3.8,3,6.8,6.8,6.8h0l-3.8,122-30.4,38.9s-.3,0,226.9,0c0,0-.2.4-27.6-39Z"/>
  <ellipse class="cls-6" cx="179.9" cy="156.9" rx="50" ry="3.8"/>
  <polygon class="cls-6" points="92 13.6 257.2 18.4 257.3 13.3 92 13.6"/>
  <path class="cls-2" d="M211.4,56.4v15c0,.3-.2.5-.5.5h-.4v78.2c0,4.5-3.7,8.2-8.2,8.2h-48.9c-4.5,0-8.2-3.7-8.2-8.2h0v-75.5h-.3c-.2,0-.4-.2-.4-.4v-8.5c0-.2.2-.4.4-.4h.3v-3.2h-.3c-.2,0-.4-.2-.4-.4v-8.4c0-.2.2-.4.4-.4h.3v-4.4h-.3c-.2,0-.3-.2-.3-.3h0v-4.6c0-.2.2-.3.3-.3h.3v-9.3c0-4.5,3.7-8.2,8.2-8.2h48.9c4.5,0,8.2,3.7,8.2,8.2v21.9h.4c.3,0,.5.2.5.5Z"/>
  <rect class="cls-4" x="171.7" y="30.1" width="9.1" height="1.8" rx=".6" ry=".6"/>
  <circle class="cls-4" cx="183.2" cy="31" r="1"/>
  <path class="cls-9" d="M206.6,35.6v115.2c0,2.9-2.3,5.2-5.2,5.2h-46.8c-2.9,0-5.2-2.3-5.2-5.2h0V35.6c0-2.9,2.3-5.2,5.2-5.2h7v.9c0,2.4,1.9,4.3,4.3,4.3h23.8c2.4,0,4.3-1.9,4.3-4.3v-.9h7.5c2.9,0,5.2,2.3,5.2,5.2h0Z"/>
  <rect class="cls-5" x="154.3" y="106.3" width="47.5" height="6.2"/>
  <rect class="cls-5" x="154.3" y="117.3" width="47.5" height="6.2"/>
  <rect class="cls-5" x="154.3" y="128.2" width="47.5" height="6.2"/>
  <rect class="cls-5" x="154.2" y="62" width="47.5" height="31.5"/>
  <path class="cls-8" d="M89.2,18.1l-24.4.2s-40.1,21.3-12,65.6c0,0,11.5-2.7,24.2,6.7,0,0,7.4-70.7,12.1-72.4Z"/>
  <path class="cls-6" d="M82,18.4c-4.4,18.2-9.3,65.3-9.3,65.3-11.4-8.4-21.8-7.1-23.8-6.7,1.2,2.4,2.6,4.8,4.1,7.1,0,0,11.5-2.7,24.2,6.7,0,0,7.4-70.7,12.1-72.4h-7.3Z"/>
  <polygon class="cls-2" points="52.7 41 50.6 51.3 24 46.5 23.9 46.5 23.3 34.3 28.5 34.3 52.7 41"/>
  <polygon class="cls-6" points="28.1 34.3 24 46.5 23.9 46.5 23.3 34.3 28.1 34.3"/>
  <ellipse class="cls-2" cx="51.8" cy="45.5" rx="3" ry="7"/>
  <path class="cls-2" d="M36.1,192.7c-.5,0-.9-.4-.9-.9h0V45.5c0-.5.4-.9.9-.9.5,0,.9.4.9.9h0v146.3c0,.5-.4.9-.9.9h0Z"/>
  <path class="cls-2" d="M48.8,218.5c-.4,0-.8-.3-.9-.7l-12.7-65.2c0-.5.2-1,.7-1.1.4,0,.7,0,1,.4l33.6,51.3c.3.4.2,1-.3,1.3-.4.3-1,.2-1.3-.3h0l-31-47.3,11.8,60.6c0,.5-.2,1-.7,1.1,0,0,0,0,0,0,0,0-.1,0-.2,0Z"/>
  <path class="cls-2" d="M.9,207c-.5,0-.9-.4-.9-.9,0-.2,0-.4.2-.5l35.1-53.6c.3-.4.9-.5,1.3-.3.4.3.5.9.3,1.3L1.7,206.6c-.2.3-.5.4-.8.4Z"/>
  <path class="cls-8" d="M257,18.1l24.4.2s40.1,21.3,12,65.6c0,0-11.5-2.7-24.2,6.7,0,0-7.4-70.7-12.1-72.4Z"/>
  <path class="cls-6" d="M264.2,18.4c4.4,18.2,9.3,65.3,9.3,65.3,11.4-8.4,21.8-7.1,23.8-6.7-1.2,2.4-2.6,4.8-4.1,7.1,0,0-11.5-2.7-24.2,6.7,0,0-7.4-70.7-12.1-72.4h7.3Z"/>
  <polygon class="cls-2" points="293.5 41 295.6 51.3 322.2 46.5 322.2 46.5 322.9 34.3 317.7 34.3 293.5 41"/>
  <polygon class="cls-6" points="318.1 34.3 322.2 46.5 322.2 46.5 322.9 34.3 318.1 34.3"/>
  <ellipse class="cls-2" cx="294.4" cy="45.5" rx="3" ry="7"/>
  <path class="cls-2" d="M310.1,192.7c-.5,0-.9-.4-.9-.9h0V45.5c0-.5.4-.9.9-.9s.9.4.9.9v146.3c0,.5-.4.9-.9.9h0Z"/>
  <path class="cls-2" d="M297.4,218.5c0,0-.1,0-.2,0-.5,0-.8-.6-.7-1.1l11.8-60.6-31,47.3c-.3.4-.9.5-1.3.3-.4-.3-.5-.9-.3-1.3h0l33.6-51.3c.3-.4.9-.5,1.3-.3.3.2.5.6.4,1l-12.7,65.2c0,.4-.5.7-.9.7Z"/>
  <path class="cls-2" d="M345.3,207c-.3,0-.6-.2-.8-.4l-35.1-53.6c-.3-.4-.2-1,.3-1.3.4-.3,1-.2,1.3.3h0l35.1,53.6c.3.4.2,1-.3,1.3-.2,0-.3.2-.5.2Z"/>
  <path class="cls-2" d="M152,128.5l6.6-1.8s2.6-.5,1-5.6-4.7-3.7-4.7-3.7l-5.9,1.7-2.3.7,3.3,4.6.3,3.1,1.8,1Z"/>
  <polygon class="cls-2" points="139.2 115.1 137.1 123.4 147.8 133.8 148.7 134 151.1 133.3 153.2 125 151.1 122.8 153.3 122.2 148.7 117.8 146.3 118.3 144.3 116.4 145.6 115.8 145.8 115.3 144.2 114.1 139.2 115.1"/>
  <polygon class="cls-8" points="149.2 126.9 147.8 132.4 141.4 126.3 143 120.8 149.2 126.9"/>
  <polygon class="cls-1" points="139.2 115.1 138.9 116.3 149.5 126.6 150.4 126.8 152.8 126.2 152.9 126.2 153.2 125 151.1 122.8 153.3 122.2 148.7 117.8 146.3 118.3 144.3 116.4 145.6 115.8 145.8 115.3 144.2 114.1 139.2 115.1"/>
  <ellipse class="cls-8" cx="144.1" cy="115" rx=".6" ry=".9" transform="translate(-2.5 226.9) rotate(-75.9)"/>
  <ellipse class="cls-8" cx="150.8" cy="123.9" rx=".6" ry=".9" transform="translate(-6 240.1) rotate(-75.9)"/>
  <path class="cls-7" d="M156.4,138.9l-1.4-4.9s3.8-9-.6-9.8-4.6,8.4-4.6,8.4l1.7,5.5,4.9.9Z"/>
  <circle class="cls-7" cx="129.6" cy="117.8" r="11.5"/>
  <path class="cls-7" d="M133.3,125.9s.7,8.4,2.4,9.1-18.2,5.4-18.2,5.4l5.1-5.7s1-8.8-1.4-10.8l12.2,2Z"/>
  <path class="cls-8" d="M149.5,136.3l4.6-.6s5.5,2.9,5.5,6.7,3.2,9.8,3.2,9.8c0,0,2.3,8.1-2.9,8.7s-9.8-8.7-9.8-8.7l-.6-15.9Z"/>
  <path class="cls-3" d="M152.1,182.3s10.1-9.5,13-9,8.7,1.4,8.7,5.8-9.5,14.5-9.5,14.5c0,0-7.2,15.9-14.2,16.5-4.6.4-9.1,1.1-13.6,2,0,0,3.2,11.6,1.4,14.8s-8.4,6.9-9,6.7-8.7-7.8-12.1-18.5c-3.5-10.7-5.8-18.8-2.6-19.4s37.9-13.3,37.9-13.3Z"/>
  <path class="cls-3" d="M172.9,178.2s2-.3,1.7,4.6c-.3,4.9-1.2,22.6-2.6,26s-1.7,7.5-1.2,9,1.7,3.8-.3,4-10.4-.9-11.3-1.2-1.7-5.2-1.2-5.2,2-.3,1.4-2.3-.9-2,0-2.6,3.2-1.4,2.6-2-1.2-14.2-1.2-14.2l11.9-16.2Z"/>
  <path class="cls-3" d="M170,221s4.9-1.4,5.5,1.7c0,0,.9,4.9-2.9,6.7-2.4,1.1-4.7,2.5-6.9,4,0,0-6.1,2.3-6.4-.6s1.2-13.3,1.2-13.3l9.5,1.4Z"/>
  <path class="cls-3" d="M137.3,224.5l-9.3-7.5s1.7,9.3-.6,11l-1.1,3.1,3,2.4s9.1-1.5,7.9-9Z"/>
  <path class="cls-3" d="M124.3,211.8s6.1,1.7,5.2,7.8c-.9,6.1-2,12.7-2,12.7,0,0-.3,16.3-4.7,17.4s-5.5-1.2-5.5-1.2c0,0-4.9-12.7-3.5-16.5,1.8-4.6,4.3-9.7,3.5-11.3-.8-1.5.6-9.8,6.9-9Z"/>
  <path class="cls-8" d="M120.8,131.9s2.3.3,6.1.9,6.4-2.3,8.4-1.7,18.8,4.6,18.8,4.6l-2.6,20s3.2,23.1,2.6,27.2,6.9,3.5,2.6,8.4-11.9,9.3-27.2,7.8-17.4-1.2-17.4-3.5,3.5-22,2.3-23.7-3.5-3.8-2.3-5.8,2.3-3.2.6-4.9-2.6-3.5-2.6-4.3-4-15-4-15c0,0,1.7-6.9,3.8-7.2s3.8-1.7,5.2-1.7,2.3.3,3.2,0l2.6-.9Z"/>
  <path class="cls-3" d="M148.6,113.8c-.1-.7-.9-2.9-2.4-3.4-1.1-.4-3.1.4-4.1.3v-.4c-.2-.7-.4-1.4-.7-2.1-1.1-2.7-3.2-4.9-5.9-6-3.3-1.4-8.5-2.5-13.1,1.1-6.2,5-5.1,12.4-4.7,14.5,0,.3.1.7.2,1,.3,1.8,1.1,2,1.1,2,0,0,0,0,0-.1l5.6.5,3-.5c0,.3,0,.5,0,.5,8.9-1.4,14.1-6,14.9-6.8.7.5,2.1,1.3,3.4,1.5,2,.3,2.6-1.3,2.5-2ZM125.7,118.3l-7.2-.3c-.1-2,.4-4.2,3.3-4.4,2.8-.1,4.3,2.1,5.1,4.2l-1.2.4Z"/>
  <ellipse class="cls-3" cx="127.5" cy="101.1" rx="1.3" ry=".5" transform="translate(-15.2 22.9) rotate(-9.7)"/>
</svg>