<?xml version="1.0" encoding="UTF-8"?>
<svg id="Ebene_1" data-name="Ebene 1" xmlns="http://www.w3.org/2000/svg" version="1.1" viewBox="0 0 541.9 250">
  <defs>
    <style>
      .cls-1 {
        fill: #3f3d56;
      }

      .cls-1, .cls-2, .cls-3, .cls-4, .cls-5, .cls-6, .cls-7, .cls-8, .cls-9, .cls-10 {
        stroke-width: 0px;
      }

      .cls-2 {
        fill: #2f2e41;
      }

      .cls-3 {
        fill: #cacaca;
      }

      .cls-4 {
        fill: #000;
        isolation: isolate;
        opacity: .1;
      }

      .cls-5 {
        fill: #ffb6b6;
      }

      .cls-6 {
        fill: #1bbc9c;
      }

      .cls-7 {
        fill: #fff;
      }

      .cls-8 {
        fill: #e4e4e4;
      }

      .cls-9 {
        fill: #ffb9b9;
      }

      .cls-10 {
        fill: #f0f0f0;
      }
    </style>
  </defs>
  <path class="cls-10" d="M114.9,236.1c-13-8.5-22.4-23.7-20.5-39,11.7,12.1,27.3,19.7,44,21.5,6.5.6,13.7.7,18.3,5.3,2.9,2.9,4.1,7,4.1,11.1,0,4-.9,8-1.9,11.9l.2,1c-15.5-.6-31.4-3.3-44.4-11.7Z"/>
  <path class="cls-7" d="M94.8,197.1c4.9,11.9,13.3,21.9,24.2,28.7,2.3,1.5,4.9,2.6,7.5,3.3,2.6.6,5.4.5,7.9-.3,2.4-.7,4.8-1.7,7.3-1.8,2.6,0,5.2,1,7,2.9,2.3,2.3,3.6,5.3,4.8,8.2,1.3,3.3,2.6,6.7,5.3,9.2.3.3-.2.8-.5.5-4.7-4.2-5.2-11-8.9-16-1.7-2.3-4.1-4.1-7.1-4.2-2.6,0-5,1-7.5,1.7-2.5.8-5.1,1-7.7.6-2.7-.6-5.3-1.6-7.6-3-5.3-3.2-10.2-7.1-14.3-11.8-4.7-5.3-8.5-11.3-11.2-17.9-.2-.4.5-.6.7-.2h0Z"/>
  <path class="cls-7" d="M115.3,223.8c-2.9,3.5-7.8,4.3-11.7,2.1-.4-.2,0-.8.3-.6,3.6,2.1,8.2,1.3,10.9-1.9.3-.3.8.1.5.5h0Z"/>
  <path class="cls-7" d="M133.2,229.3c-.4-4.4-2.4-8.5-5.7-11.5-.3-.3.2-.8.5-.5,3.4,3.1,5.5,7.4,5.9,12,0,.4-.6.4-.7,0h0Z"/>
  <path class="cls-7" d="M101.4,209.6c1.4-1.1,2.1-2.8,1.9-4.5,0-.4.6-.4.7,0,.2,1.9-.6,3.8-2.1,5-.1.1-.3.1-.5,0-.1-.1-.1-.3,0-.5h0Z"/>
  <path class="cls-10" d="M138.7,168.9c0,.3,0,.5.1.8.5,3.7,1.2,7.3,2.3,10.8,0,.3.2.6.2.8,2.6,8.5,6.8,16.4,12.4,23.4,2.2,2.8,4.6,5.4,7.2,7.8,3.6,3.3,7.7,6.6,10,10.8.2.4.4.9.6,1.3l-11.1,22.7c0,0,0,0-.1.1l-.4.9c-.1-.1-.3-.2-.4-.4,0,0-.2-.1-.2-.2,0,0-.1,0-.2-.1,0,0,0,0,0,0,0,0,0,0-.1-.1-.8-.7-1.6-1.4-2.4-2.1t0,0c-6.2-5.3-11.9-11.2-16.6-17.7-.1-.2-.3-.4-.4-.6-2.1-3-3.9-6.1-5.5-9.4-.9-1.8-1.6-3.6-2.3-5.5-1.7-4.8-2.7-9.9-2.9-15-.3-10.2,2.6-20.5,9.5-27.9.2-.2.3-.4.5-.6Z"/>
  <path class="cls-7" d="M139,169.1c-3.3,12.4-2.5,25.5,2.1,37.5.9,2.6,2.3,5,4,7.2,1.7,2.1,4,3.6,6.5,4.5,2.3.9,4.8,1.5,6.9,3,2.1,1.5,3.5,3.9,3.8,6.5.4,3.2-.3,6.4-1.1,9.5-.9,3.4-1.9,7-1.3,10.5,0,.4-.6.5-.7.1-1.2-6.2,2.5-11.9,2.5-18.1,0-2.9-.8-5.8-3.2-7.6-2-1.6-4.6-2.3-7-3.1-2.5-.8-4.7-2.3-6.5-4.2-1.8-2.1-3.2-4.5-4.3-7-2.4-5.7-3.8-11.8-4.3-18-.6-7.1,0-14.2,1.8-21,.1-.4.7-.2.6.3Z"/>
  <path class="cls-7" d="M139.3,202.8c-4.4,1-8.8-1.2-10.6-5.4-.2-.4.5-.7.6-.3,1.6,3.9,5.8,6,9.8,5,.4-.1.5.6.1.7Z"/>
  <path class="cls-7" d="M150.3,218c2.4-3.8,3.2-8.3,2.4-12.6,0-.4.6-.5.7-.1.8,4.5,0,9.2-2.5,13.1-.2.4-.8,0-.6-.4Z"/>
  <path class="cls-7" d="M136.8,183.1c1.7,0,3.3-1,4.3-2.4.2-.4.8,0,.6.4-1,1.6-2.8,2.6-4.7,2.7-.2,0-.4-.1-.4-.3,0-.2,0-.4.3-.4h0Z"/>
  <path class="cls-10" d="M510.9,236.1c13-8.5,22.4-23.7,20.5-39-11.7,12.1-27.3,19.7-44,21.5-6.5.6-13.7.7-18.3,5.3-2.9,2.9-4.1,7-4.1,11.1,0,4,.9,8,1.9,11.9l-.2,1c15.5-.6,31.4-3.3,44.4-11.7Z"/>
  <path class="cls-7" d="M531,197.1c-4.9,11.9-13.3,21.9-24.2,28.7-2.3,1.5-4.9,2.6-7.5,3.3-2.6.6-5.4.5-7.9-.3-2.4-.7-4.8-1.7-7.3-1.8-2.6,0-5.2,1-7,2.9-2.3,2.3-3.6,5.3-4.8,8.2-1.3,3.3-2.6,6.7-5.3,9.2-.3.3.2.8.5.5,4.7-4.2,5.2-11,8.9-16,1.7-2.3,4.1-4.1,7.1-4.2,2.6,0,5,1,7.5,1.7,2.5.8,5.1,1,7.7.6,2.7-.6,5.3-1.6,7.6-3,5.3-3.2,10.2-7.1,14.3-11.8,4.7-5.3,8.5-11.3,11.2-17.9.2-.4-.5-.6-.7-.2h0Z"/>
  <path class="cls-7" d="M510.5,223.8c2.9,3.5,7.8,4.3,11.7,2.1.4-.2,0-.8-.3-.6-3.6,2.1-8.2,1.3-10.9-1.9-.3-.3-.8.1-.5.5h0Z"/>
  <path class="cls-7" d="M492.6,229.3c.4-4.4,2.4-8.5,5.7-11.5.3-.3-.2-.8-.5-.5-3.4,3.1-5.5,7.4-5.9,12,0,.4.6.4.7,0h0Z"/>
  <path class="cls-7" d="M524.4,209.6c-1.4-1.1-2.1-2.8-1.9-4.5,0-.4-.6-.4-.7,0-.2,1.9.6,3.8,2.1,5,.1.1.3.1.5,0,.1-.1.1-.3,0-.5Z"/>
  <path class="cls-10" d="M487.1,168.9c0,.3,0,.5-.1.8-.5,3.7-1.2,7.3-2.3,10.8,0,.3-.2.6-.2.8-2.6,8.5-6.8,16.4-12.4,23.4-2.2,2.8-4.6,5.4-7.2,7.8-3.6,3.3-7.7,6.6-10,10.8-.2.4-.4.9-.6,1.3l11.1,22.7c0,0,0,0,.1.1l.4.9c.1-.1.3-.2.4-.4,0,0,.2-.1.2-.2,0,0,.1,0,.2-.1,0,0,0,0,0,0,0,0,0,0,.1-.1.8-.7,1.6-1.4,2.4-2.1t0,0c6.2-5.3,11.9-11.2,16.6-17.7.1-.2.3-.4.4-.6,2.1-3,3.9-6.1,5.5-9.4.9-1.8,1.6-3.6,2.3-5.5,1.7-4.8,2.7-9.9,2.9-15,.3-10.2-2.6-20.5-9.5-27.9-.2-.2-.3-.4-.5-.6Z"/>
  <path class="cls-7" d="M486.9,169.1c3.3,12.4,2.5,25.5-2.1,37.5-.9,2.6-2.3,5-4,7.2-1.7,2.1-4,3.6-6.5,4.5-2.3.9-4.8,1.5-6.9,3-2.1,1.5-3.5,3.9-3.8,6.5-.4,3.2.3,6.4,1.1,9.5.9,3.4,1.9,7,1.3,10.5,0,.4.6.5.7.1,1.2-6.2-2.5-11.9-2.5-18.1,0-2.9.8-5.8,3.2-7.6,2-1.6,4.6-2.3,7-3.1,2.5-.8,4.7-2.3,6.5-4.2,1.8-2.1,3.2-4.5,4.3-7,2.4-5.7,3.8-11.8,4.3-18,.6-7.1,0-14.2-1.8-21-.1-.4-.7-.2-.6.3Z"/>
  <path class="cls-7" d="M486.5,202.8c4.4,1,8.8-1.2,10.6-5.4.2-.4-.5-.7-.6-.3-1.6,3.9-5.8,6-9.8,5-.4-.1-.5.6-.1.7Z"/>
  <path class="cls-7" d="M475.5,218c-2.4-3.8-3.2-8.3-2.4-12.6,0-.4-.6-.5-.7-.1-.8,4.5,0,9.2,2.5,13.1.2.4.8,0,.6-.4Z"/>
  <path class="cls-7" d="M489.1,183.1c-1.7,0-3.3-1-4.3-2.4-.2-.4-.8,0-.6.4,1,1.6,2.8,2.6,4.7,2.7.2,0,.4-.1.4-.3,0-.2,0-.4-.3-.4Z"/>
  <path class="cls-5" d="M140.5,161.5c-1.9-1.1-2.5-3.5-1.3-5.4.1-.2.3-.4.4-.6l-6.9-12.1,7.2.5,5.4,11.4c1.5,1.5,1.5,4,0,5.6-1.3,1.3-3.3,1.5-4.8.6Z"/>
  <polygon class="cls-5" points="87.3 244 92.1 244 94.4 225.6 87.3 225.6 87.3 244"/>
  <path class="cls-2" d="M86.1,242.4h9.4s0,0,0,0c3.3,0,6,2.7,6,6v.2h-15.4s0-6.2,0-6.2Z"/>
  <polygon class="cls-5" points="120.1 244 124.9 244 127.1 225.6 120.1 225.6 120.1 244"/>
  <path class="cls-2" d="M118.9,242.4h9.4s0,0,0,0c3.3,0,6,2.7,6,6v.2h-15.4s0-6.2,0-6.2Z"/>
  <path class="cls-2" d="M132.4,144s1.3,18.7-1.3,28.1c-2.6,9.4-3.1,66.4-3.1,66.4h-8.7l-7.5-77.6-17.3,77.9-8.3-.6,4.5-91.8,41.6-2.5Z"/>
  <path class="cls-1" d="M94.4,80.9l6.6-4.8,11.1,2.4,3,7.1,5.2,2.6c3.5,1.7,5.9,5,6.4,8.8l7.4,51.1-43.3-1.7-5.2-60.2c-.2-2.6,1.7-4.9,4.3-5.1,0,0,0,0,.1,0l4.4-.3Z"/>
  <polygon class="cls-1" points="123.1 92.2 127.1 97.6 144.5 150.8 136.3 154.1 123.2 129.3 123.1 92.2"/>
  <circle class="cls-9" cx="108.5" cy="63.9" r="9.7"/>
  <polygon class="cls-4" points="87.4 103.7 103.2 125.7 120.9 137.2 87.4 103.7"/>
  <path class="cls-2" d="M103.4,70.9c-.7-1.3-1.4-2.8-1.1-4.3s2-2.8,3.3-2c.5-2,3-2.8,5-2.6s3.9,1.2,5.9,1.6,4.4,0,5.5-1.6h-2.6s2.7-3.2,2.7-3.2l-3.1-.2c1.1-1.2.8-3.1-.3-4.3s-2.6-1.8-4.2-2.1c-3.1-.7-6.3-.8-9.4-.2-1.5.2-2.9.7-4.2,1.5-1.2.7-2.2,1.8-2.9,3-.8,1.4-1.2,3-1.2,4.6,0,4.3,2,8.4,5.6,10.9"/>
  <path class="cls-8" d="M463.8,248.9H163.4c-6.4,0-11.7-5.2-11.7-11.7V11.7c0-6.4,5.2-11.7,11.7-11.7h300.4c6.4,0,11.7,5.2,11.7,11.7v225.5c0,6.4-5.2,11.7-11.7,11.7Z"/>
  <path class="cls-7" d="M388.2,103.6h-46.4c-4.8,0-8.6-3.9-8.6-8.6s3.9-8.6,8.6-8.6h46.4c4.8,0,8.6,3.9,8.6,8.6s-3.9,8.6-8.6,8.6Z"/>
  <path class="cls-7" d="M347.6,127.2h-10.9c-1.7,0-3.2-1.4-3.2-3.2s1.4-3.2,3.2-3.2h10.9c1.7,0,3.2,1.4,3.2,3.2s-1.4,3.2-3.2,3.2Z"/>
  <path class="cls-7" d="M393.1,127.2h-10.9c-1.7,0-3.2-1.4-3.2-3.2s1.4-3.2,3.2-3.2h10.9c1.7,0,3.2,1.4,3.2,3.2s-1.4,3.2-3.2,3.2h0Z"/>
  <path class="cls-7" d="M370.1,127.2h-10.9c-1.7,0-3.2-1.4-3.2-3.2s1.4-3.2,3.2-3.2h10.9c1.7,0,3.2,1.4,3.2,3.2s-1.4,3.2-3.2,3.2Z"/>
  <path class="cls-7" d="M347.6,139.3h-10.9c-1.7,0-3.2-1.4-3.2-3.2s1.4-3.2,3.2-3.2h10.9c1.7,0,3.2,1.4,3.2,3.2s-1.4,3.2-3.2,3.2Z"/>
  <path class="cls-7" d="M393.1,139.3h-10.9c-1.7,0-3.2-1.4-3.2-3.2s1.4-3.2,3.2-3.2h10.9c1.7,0,3.2,1.4,3.2,3.2s-1.4,3.2-3.2,3.2h0Z"/>
  <path class="cls-7" d="M370.1,139.3h-10.9c-1.7,0-3.2-1.4-3.2-3.2s1.4-3.2,3.2-3.2h10.9c1.7,0,3.2,1.4,3.2,3.2s-1.4,3.2-3.2,3.2Z"/>
  <path class="cls-7" d="M347.6,151.4h-10.9c-1.7,0-3.2-1.4-3.2-3.2s1.4-3.2,3.2-3.2h10.9c1.7,0,3.2,1.4,3.2,3.2s-1.4,3.2-3.2,3.2Z"/>
  <path class="cls-7" d="M393.1,151.4h-10.9c-1.7,0-3.2-1.4-3.2-3.2s1.4-3.2,3.2-3.2h10.9c1.7,0,3.2,1.4,3.2,3.2s-1.4,3.2-3.2,3.2h0Z"/>
  <path class="cls-7" d="M370.1,151.4h-10.9c-1.7,0-3.2-1.4-3.2-3.2s1.4-3.2,3.2-3.2h10.9c1.7,0,3.2,1.4,3.2,3.2s-1.4,3.2-3.2,3.2Z"/>
  <path class="cls-7" d="M347.6,163.5h-10.9c-1.7,0-3.2-1.4-3.2-3.2s1.4-3.2,3.2-3.2h10.9c1.7,0,3.2,1.4,3.2,3.2s-1.4,3.2-3.2,3.2Z"/>
  <path class="cls-7" d="M393.1,163.5h-10.9c-1.7,0-3.2-1.4-3.2-3.2s1.4-3.2,3.2-3.2h10.9c1.7,0,3.2,1.4,3.2,3.2s-1.4,3.2-3.2,3.2h0Z"/>
  <path class="cls-7" d="M370.1,163.5h-10.9c-1.7,0-3.2-1.4-3.2-3.2s1.4-3.2,3.2-3.2h10.9c1.7,0,3.2,1.4,3.2,3.2s-1.4,3.2-3.2,3.2Z"/>
  <circle class="cls-3" cx="273.6" cy="121.4" r="29.4" transform="translate(109.9 372) rotate(-80.8)"/>
  <path class="cls-7" d="M273.6,157.4c-4.8,0-8.6-3.9-8.6-8.6v-54.7c0-4.8,3.9-8.6,8.6-8.6,4.8,0,8.6,3.9,8.6,8.6h0v54.7c0,4.8-3.9,8.6-8.6,8.6Z"/>
  <path class="cls-8" d="M350.4,99.8h-8.1c-.6,0-1.2-.5-1.2-1.2s.5-1.2,1.2-1.2h8.1c.6,0,1.2.5,1.2,1.2s-.5,1.2-1.2,1.2Z"/>
  <path class="cls-8" d="M363,100.1h-8.1c-.6,0-1.2-.5-1.2-1.2s.5-1.2,1.2-1.2h8.1c.6,0,1.2.5,1.2,1.2s-.5,1.2-1.2,1.2Z"/>
  <path class="cls-8" d="M375.7,100.4h-8.1c-.6,0-1.2-.5-1.2-1.2s.5-1.2,1.2-1.2h8.1c.6,0,1.2.5,1.2,1.2s-.5,1.2-1.2,1.2Z"/>
  <path class="cls-8" d="M388.4,100.7h-8.1c-.6,0-1.2-.5-1.2-1.2s.5-1.2,1.2-1.2h8.1c.6,0,1.2.5,1.2,1.2s-.5,1.2-1.2,1.2Z"/>
  <path class="cls-3" d="M190.1,213.3c0,2.9,1.2,5.6,3.2,7.7h-4.8c-5.9,0-10.7-4.8-10.7-10.7h0V36.9c0-5.9,4.8-10.7,10.7-10.7h6.9c-3.3,1.9-5.4,5.5-5.4,9.3v177.7Z"/>
  <path class="cls-3" d="M541.2,250H.7c-.4,0-.7-.3-.7-.7,0-.4.3-.7.7-.7h540.5c.4,0,.7.3.7.7,0,.4-.3.7-.7.7Z"/>
  <path class="cls-7" d="M188.9,76.9c-3.6-1-7.3-2-11-2.8-12.5-3-25.3-5.2-38.1-6.6-4.5-1.2-9.2,1.5-10.4,6l-6.4,23.6c-1.2,4.5,1.5,9.2,6,10.4h0c8.5,1,17,2.3,25.5,4,.8.1,1.5.3,2.3.5,2.7.6,5.4,1.2,8.2,1.8,1.2.3,2.4.6,3.6.9,3.2.8,6.4,1.6,9.6,2.5,3.6,1,7.1,2.1,10.7,3.2.4.1.8.2,1.2.4v-43.5c-.4-.1-.8-.2-1.2-.3Z"/>
  <path class="cls-6" d="M188.9,76.9c-3.6-1-7.3-2-11-2.8-12.5-3-25.3-5.2-38.1-6.6-4.5-1.2-9.2,1.5-10.4,6l-6.4,23.6c-1.2,4.5,1.5,9.2,6,10.4h0c8.5,1,17,2.3,25.5,4,.8.1,1.5.3,2.3.5,2.7.6,5.4,1.2,8.2,1.8,1.2.3,2.4.6,3.6.9,3.2.8,6.4,1.6,9.6,2.5,3.6,1,7.1,2.1,10.7,3.2.4.1.8.2,1.2.4v-1.2c-.4-.1-.8-.2-1.2-.4-3.3-1-6.5-2-9.8-2.9-1.2-.4-2.4-.7-3.7-1-2.2-.6-4.4-1.2-6.6-1.7-1.2-.3-2.3-.6-3.5-.8,0,0-.2,0-.3,0-2-.5-4-.9-5.9-1.3-.8-.2-1.5-.3-2.3-.5-9.2-1.9-18.4-3.4-27.6-4.4-3.9-1.1-6.2-5.1-5.1-9l6.4-23.6c1.1-3.9,5.1-6.2,9-5.2h0c12.7,1.4,25.2,3.6,37.6,6.5.1,0,.3,0,.4,0,3.8.9,7.5,1.9,11.2,2.9.4.1.8.2,1.2.3v-1.2c-.4-.1-.8-.2-1.2-.3Z"/>
  <path class="cls-6" d="M190.1,77.8v42.3c-.4-.1-.8-.2-1.2-.4-3.4-1.1-6.8-2.1-10.2-3.1-3.3-.9-6.6-1.8-9.9-2.6-1.2-.3-2.3-.6-3.5-.8,0-.2,0-.4-.1-.6-.2-1-.4-2-.5-3,0-.4,0-.8-.1-1.2-1.2-12.5,3.5-24.9,12.8-33.3.2-.2.3-.3.5-.5,3.7.9,7.4,1.8,11.1,2.9.4,0,.8.2,1.2.3Z"/>
  <path class="cls-6" d="M151.8,95.1l-16-1.9c-2.4-.3-4.5,1.4-4.8,3.8-.3,2.4,1.4,4.5,3.8,4.8h0l16,1.9c2.4.3,4.5-1.4,4.8-3.8.3-2.4-1.4-4.5-3.8-4.8ZM154.4,99.8c-.2,1.7-1.8,3-3.5,2.8l-16-1.9c-1.7-.2-3-1.8-2.8-3.5.2-1.7,1.8-3,3.5-2.8l16,1.9c1.7.2,3,1.8,2.8,3.5h0Z"/>
  <path class="cls-7" d="M190.1,87.7v20.1c-.4.2-.8.4-1.2.6-4.2,1.9-9.2,1.1-12.6-2-.2-.1-.3-.3-.5-.5-.2-.2-.3-.3-.4-.5-4.2-4.8-3.7-12.2,1.1-16.4,3.4-3,8.2-3.7,12.4-1.8.4.2.8.4,1.2.6Z"/>
  <path class="cls-7" d="M188.9,102.3c-4.5.9-9,2-13.5,3.1-1.7.4-3.3.9-5,1.3-2,.5-4,1.1-5.9,1.7-2.5.7-5.1,1.5-7.6,2.4-.7.2-1.5.5-2.2.7-7,2.3-14,4.9-20.8,7.8-4.5,1.1-7.3,5.7-6.2,10.3l5.8,23.8c1.1,4.6,5.7,7.4,10.3,6.3h0c11.3-4.6,22.8-8.6,34.5-11.9,3.5-1,7-1.9,10.6-2.8.4,0,.8-.2,1.2-.3v-42.7c-.4,0-.8.1-1.2.2Z"/>
  <path class="cls-6" d="M188.9,102.3c-4.5.9-9,2-13.5,3.1-1.7.4-3.3.9-5,1.3-2,.5-4,1.1-5.9,1.7-2.5.7-5.1,1.5-7.6,2.4-.7.2-1.5.5-2.2.7-7,2.3-14,4.9-20.8,7.8-4.5,1.1-7.3,5.7-6.2,10.3l5.8,23.8c1.1,4.6,5.7,7.4,10.3,6.3h0c11.3-4.6,22.8-8.6,34.5-11.9,3.5-1,7-1.9,10.6-2.8.4,0,.8-.2,1.2-.3v-1.2c-.4,0-.8.2-1.2.3-.3,0-.6.1-.9.2-3.4.8-6.7,1.7-10.1,2.6,0,0-.2,0-.3,0-11.7,3.2-23.1,7.2-34.4,11.8-3.9.9-7.9-1.5-8.8-5.4l-5.8-23.8c-1-3.9,1.5-7.9,5.4-8.9h0c7.5-3.1,15.1-5.9,22.7-8.4.7-.2,1.5-.5,2.2-.7,1.8-.6,3.6-1.1,5.4-1.7,1.9-.6,3.8-1.1,5.7-1.6.1,0,.3,0,.4-.1,1.9-.5,3.7-1,5.6-1.5,4.2-1.1,8.4-2,12.6-2.9.4,0,.8-.2,1.2-.2v-1.2c-.4,0-.8.1-1.2.2Z"/>
  <path class="cls-6" d="M190.1,102.6v41.5c-.4,0-.8.2-1.2.3-3.6.9-7.2,1.8-10.8,2.8-.1-.2-.3-.3-.4-.5-7.6-8.8-10.9-20.5-9.1-32,0-.2,0-.4,0-.6,0-.2,0-.4,0-.6.4-1.9.8-3.7,1.5-5.6,0-.2.1-.4.2-.7,1.8-.5,3.5-.9,5.3-1.4,4.3-1.1,8.7-2.1,13.1-3,.4,0,.8-.2,1.2-.2Z"/>
  <path class="cls-6" d="M163.3,140.2c-.9-2.2-3.4-3.3-5.6-2.4l-14.9,6.1c-2.2.9-3.3,3.4-2.4,5.6.9,2.2,3.4,3.3,5.6,2.4l14.9-6.1c2.2-.9,3.3-3.4,2.4-5.6ZM160.5,144.7l-14.9,6.1c-1.6.7-3.5-.1-4.1-1.7s.1-3.5,1.7-4.1h0l14.9-6.1c1.6-.7,3.5.1,4.1,1.7s-.1,3.5-1.7,4.1Z"/>
  <path class="cls-7" d="M190.1,113.2v22.6c-.4,0-.8.2-1.2.2-6.4.9-12.3-3.5-13.1-9.9-.4-3.2.4-6.4,2.5-8.9.1-.2.3-.3.4-.5.1-.2.3-.3.4-.5,2.6-2.6,6.2-3.8,9.8-3.2.4,0,.8.1,1.2.2Z"/>
  <path class="cls-2" d="M188.9,73.9v57.5c.4-.1.8-.2,1.2-.4v-56.6c-.4-.2-.8-.4-1.2-.5ZM188.9,73.9v57.5c.4-.1.8-.2,1.2-.4v-56.6c-.4-.2-.8-.4-1.2-.5ZM188.9,73.9v57.5c.4-.1.8-.2,1.2-.4v-56.6c-.4-.2-.8-.4-1.2-.5ZM188.9,78.1v66.3c.4,0,.8-.2,1.2-.3v-65.7c-.4-.1-.8-.2-1.2-.3h0ZM188.9,78.1v66.3c.4,0,.8-.2,1.2-.3v-65.7c-.4-.1-.8-.2-1.2-.3h0ZM188.9,78.1v66.3c.4,0,.8-.2,1.2-.3v-65.7c-.4-.1-.8-.2-1.2-.3h0ZM188.9,78.1v66.3c.4,0,.8-.2,1.2-.3v-65.7c-.4-.1-.8-.2-1.2-.3h0ZM188.9,78.1v66.9c.4,0,.8-.2,1.2-.3v-66.3c-.4-.1-.8-.2-1.2-.3h0ZM440.2,23.6h-239.4c-6.6,0-11.9,5.4-12,12v177.7c0,6.6,5.4,11.9,12,12h239.4c6.6,0,11.9-5.4,12-12V35.6c0-6.6-5.4-12-12-12h0ZM451,213.3c0,6-4.8,10.8-10.8,10.8h-239.4c-6,0-10.8-4.8-10.8-10.8V35.6c0-6,4.8-10.8,10.8-10.8h239.4c6,0,10.8,4.8,10.8,10.8v177.7ZM188.9,78.1v65.7c.4,0,.8-.2,1.2-.3v-65.1c-.4-.1-.8-.2-1.2-.3h0ZM188.9,78.1v66.3c.4,0,.8-.2,1.2-.3v-65.7c-.4-.1-.8-.2-1.2-.3h0ZM188.9,78.1v66.3c.4,0,.8-.2,1.2-.3v-65.7c-.4-.1-.8-.2-1.2-.3h0ZM188.9,78.1v66.3c.4,0,.8-.2,1.2-.3v-65.7c-.4-.1-.8-.2-1.2-.3h0ZM188.9,73.9v57.5c.4-.1.8-.2,1.2-.4v-56.6c-.4-.2-.8-.4-1.2-.5ZM188.9,73.9v57.5c.4-.1.8-.2,1.2-.4v-56.6c-.4-.2-.8-.4-1.2-.5Z"/>
  <path class="cls-5" d="M137.6,134.7c-.9-2-3.2-2.9-5.1-2.1-.2,0-.4.2-.6.3l-11-8.5-.5,7.2,10.6,7c1.3,1.7,3.8,2.1,5.5.8,1.5-1.1,2-3,1.2-4.7Z"/>
  <path class="cls-1" d="M93.1,83.5l-3.6-1.7s-5.9,1.6-3,9.4l17.2,32.1,21,12.3,6.6-5.8-21-16.6-17.1-29.6Z"/>
</svg>