<?xml version="1.0" encoding="UTF-8"?>
<svg id="Ebene_1" data-name="Ebene 1" xmlns="http://www.w3.org/2000/svg" version="1.1" viewBox="0 0 211.6 250">
  <defs>
    <style>
      .cls-1 {
        fill: #3f3d56;
      }

      .cls-1, .cls-2, .cls-3, .cls-4, .cls-5, .cls-6, .cls-7 {
        stroke-width: 0px;
      }

      .cls-2 {
        fill: #2f2e41;
      }

      .cls-3 {
        fill: #e6e6e6;
      }

      .cls-4 {
        fill: #feb8b8;
      }

      .cls-5 {
        fill: #1bbc9c;
      }

      .cls-6 {
        fill: #e4e4e4;
      }

      .cls-7 {
        fill: #f0f0f0;
      }
    </style>
  </defs>
  <path class="cls-7" d="M207.9,245c-1.2,1.6-2.7,3-4.4,4.1-.4.2-.7.4-1.1.6h-8.9c.1-.2.2-.4.3-.6,5.6-11.9,3.1-26.1-6.4-35.2,5.4,1.7,10.3,4.9,13.6,9.5,1.6,2.2,2.7,4.7,3.3,7.4.5-5.3-.3-10.7-2.5-15.6,4.4,3.5,7.7,8.4,9,13.8,1.3,5.5.4,11.5-3,16Z"/>
  <path id="b35682e1-9f03-403a-b8b0-c3d37d0d1380-960" class="cls-1" d="M211.5,250h-83v-.7h83.1v.7Z"/>
  <path class="cls-5" d="M99.4,84.8c0,12.4-4.3,23.1-12.6,31-5.9,5.6-14.9,13.5-14.9,21.8v6.9h-27.5v-6.9c0-8.4-9.1-16.3-14.9-21.8-8.1-7.6-12.6-19-12.6-31v-.3c0-22.8,18.6-41.3,41.4-41.2,22.8,0,41.2,18.6,41.2,41.4Z"/>
  <path id="ecc2cf6c-8ee8-498c-972d-3c77e28b77e9-961" class="cls-1" d="M71.9,145.4c-.5,0-1-.4-1-1v-6.9c0-8.1,8-15.6,13.8-21.2.5-.5,1-.9,1.4-1.3,8.1-7.7,12.3-18.2,12.3-30.3,0-22.6-17.7-40.3-40.3-40.3h-.1c-22.2,0-40.1,18-40.2,40.1v.2c0,11.9,4.5,22.9,12.3,30.3.4.4.8.8,1.2,1.2,5.9,5.5,14,13.1,14,21.3v6.9c0,.5-.4,1-1,1s-1-.4-1-1h0v-6.9c0-7.4-7.7-14.7-13.4-19.9-.4-.4-.8-.8-1.2-1.2-8.2-7.8-12.9-19.3-12.9-31.7v-.2c0-23.2,19-42,42.2-42h.1c23.2-.1,42.2,18.6,42.3,41.8,0,.1,0,.3,0,.4,0,12.6-4.5,23.6-12.9,31.7-.5.4-.9.9-1.4,1.3-5.6,5.3-13.2,12.5-13.2,19.8v6.9c0,.5-.4,1-1,1h0Z"/>
  <path id="b22bef41-3cd7-4c1e-881c-c9a642005cb0-962" class="cls-5" d="M67.3,157.8h-18.4c-.9,0-1.6-.7-1.6-1.6s.7-1.6,1.6-1.6h18.4c.9,0,1.6.7,1.6,1.6s-.7,1.6-1.6,1.6Z"/>
  <path class="cls-1" d="M60.1,168.6h-4c-1.4,0-2.7-.4-3.9-1.1-.4-.2-.5-.6-.4-1,.1-.4.5-.7.9-.7h10.8c.4,0,.8.3.9.7.1.4,0,.8-.4,1-1.2.7-2.5,1.1-3.9,1.1Z"/>
  <path class="cls-1" d="M67.3,162.9h-18.5s0-.1,0-.1c-.1-.5,0-.9.3-1.3.3-.4.8-.6,1.2-.6h15.6c.5,0,.9.2,1.2.6.3.4.4.8.3,1.3h0c0,.1-.1.1-.1.1Z"/>
  <path id="e0eb6627-54a4-4797-861b-0d156b8b485b-963" class="cls-6" d="M15.4,46.8c-.4,0-.8-.1-1.1-.4L.5,34.4c-.7-.6-.7-1.6-.1-2.3.6-.7,1.6-.7,2.2-.2l13.8,12.1c.7.6.7,1.6.2,2.3-.3.4-.7.6-1.2.6h0Z"/>
  <path id="e13fc22b-cd18-4b6e-a2d4-df4b74c6b7e7-964" class="cls-6" d="M98.6,46.8c-.9,0-1.6-.7-1.6-1.6,0-.5.2-.9.6-1.2l13.8-12.1c.7-.6,1.7-.5,2.3.2.6.7.5,1.7-.2,2.2l-13.8,12.1c-.3.3-.7.4-1.1.4Z"/>
  <path id="a74da646-4683-465e-97fe-dd817e7fc328-965" class="cls-5" d="M71.9,152.1h-27.5c-.9,0-1.6-.7-1.6-1.6s.7-1.6,1.6-1.6h27.5c.9,0,1.6.7,1.6,1.6s-.7,1.6-1.6,1.6Z"/>
  <path class="cls-3" d="M57.5,110l-5.7,34.4h-3.3l5.8-35c.1-.9,1-1.5,1.9-1.3s1.5,1,1.3,1.9Z"/>
  <path class="cls-3" d="M68.5,144.5h-3.3l-5.7-34.4c-.1-.9.4-1.7,1.3-1.9s1.7.4,1.9,1.3l5.8,35Z"/>
  <path id="be3a5c8a-fbb4-472c-819b-e8dd06032f6a-966" class="cls-3" d="M47.7,108.9c0-.9.7-1.6,1.6-1.6h17.7c.9,0,1.6.7,1.6,1.6s-.7,1.6-1.6,1.6h-17.7c-.9,0-1.6-.7-1.6-1.6Z"/>
  <path id="e9f776ed-f4b6-47dc-b212-c247d99ecb23-967" class="cls-6" d="M58.1,30.8c-.9,0-1.6-.7-1.6-1.6V1.6c0-.9.7-1.6,1.6-1.6s1.6.7,1.6,1.6v27.5c0,.9-.7,1.6-1.6,1.6Z"/>
  <path id="eba1f826-879a-4c25-b118-6bb025be95d0-968" class="cls-4" d="M189.8,245.5h-3.9l-1.9-15.2h5.8v15.2Z"/>
  <path id="f6694a1b-3521-46e6-aa9c-51f4297aac52-969" class="cls-2" d="M190.8,249.3h-12.7v-.2c0-2.7,2.2-5,5-5h7.8v5.1Z"/>
  <path id="fae71c2d-33fb-45f7-8331-19b4de5eddc8-970" class="cls-4" d="M159.8,245.4l-3.8-1,2.1-15.2,5.6,1.5-3.9,14.7Z"/>
  <path id="b3b10fd6-5fa4-49f3-8270-96ad6a3a1e0e-971" class="cls-2" d="M159.8,249.3l-12.3-3.3v-.2c.7-2.6,3.5-4.2,6.1-3.5h0l7.5,2-1.3,4.9Z"/>
  <path id="f6267da0-acb1-421a-9dac-5a6151c1f955-972" class="cls-2" d="M192.1,160.1l3.3,3.8-4.3,78.1h-9.1l-4.6-60.1-14.3,61.7-9.5-2.3,8.6-78.4,29.9-2.8Z"/>
  <path id="ea0dabd6-18d7-4484-8048-4cddc34702bd-973" class="cls-3" d="M164.4,109.7l9.1-4.6,14,.2,12,6.2-6.9,34.2,3,17.8h0c-11.4,2.9-23.4,3-34.9.3h0s6.8-24.2,3.9-31.5l-.2-22.7Z"/>
  <path id="a75b604a-8411-40e9-b5d3-81fba8b6e00c-974" class="cls-4" d="M190.7,91.5c0-5.7-4.7-10.3-10.3-10.3-5.7,0-10.3,4.7-10.3,10.3s4.7,10.3,10.3,10.3c5.7,0,10.2-4.6,10.3-10.3h0Z"/>
  <path id="b97e8772-edf1-4d51-bb40-aaab108bf113-975" class="cls-4" d="M163.2,134.7c.7,1.9,2.9,2.8,4.8,2.1.2,0,.4-.2.6-.3l18.5,9.8.6-4.5-18-10.6c-1.2-1.7-3.5-2.1-5.2-.9-1.4,1-1.9,2.8-1.3,4.4h0Z"/>
  <path id="b7638692-4395-4c34-bc33-e4b41c888504-976" class="cls-4" d="M187.8,135.4c-1.1,1.7-3.4,2.1-5.1,1-.2-.1-.3-.3-.5-.4l-20.2,5.5.2-5.7,20.1-5.2c1.5-1.4,3.9-1.3,5.2.3,1.2,1.3,1.3,3.2.3,4.6h0Z"/>
  <path id="fb7d8996-2760-43c1-a9a4-d402d6d3756c-977" class="cls-3" d="M195.6,111.8l3.9-.2s4.6,6.1,2,12.7c0,0,.4,23.7-9.8,22.7-10.2-1-13.4-1-13.4-1l3.1-8.5,6.8-2.1s-2.1-9.3,1.9-13.2l5.4-10.3Z"/>
  <path id="a9eb06d8-8cbf-43ab-991d-4f9eccd60edd-978" class="cls-3" d="M167.2,111.6l-.6-2.8s-8.2-.2-9.8,12.2c0,0-7.4,18.6-.1,21s15.2,0,15.2,0l-.6-8.2-7.9-1.6s4.1-5.3,1.9-9.9l2-10.6Z"/>
  <path id="ba7ab43e-494b-455d-a87f-0e0f24cb0a47-979" class="cls-2" d="M184,96.5c-.8-.3-1.6-.3-2.4-.4-2.9-.5-5.1-3.4-4.8-6.3,0-.4,0-.8,0-1.1-.2-.8-1.1-1.3-2-1.4s-1.7,0-2.5-.2c-1.3-.3-2.2-1.5-2.5-2.8-.3-1.3-.1-2.6.4-3.9l.4.8c.4-.4.7-1,.8-1.6.7,0,1.3.4,1.7,1.1.5.2.4-.9,1-1.2.2,0,.5,0,.7,0,1.1.4,2.3-.2,3.4-.6,1.9-.7,4-.9,6-.7,1.3.2,2.7.6,3.8,1.4.8.8,1.5,1.7,2,2.7,1.3,2.4,2.3,5.1,2.2,7.8,0,2.2-.7,4.4-2,6.3-.7,1-2.8,4.3-4.2,3.9-1.8-.5.3-3.2-1.9-4Z"/>
</svg>