<?xml version="1.0" encoding="UTF-8"?>
<svg id="Ebene_1" data-name="Ebene 1" xmlns="http://www.w3.org/2000/svg" version="1.1" viewBox="0 0 274.1 250">
  <defs>
    <style>
      .cls-1 {
        fill: #ccc;
      }

      .cls-1, .cls-2, .cls-3, .cls-4 {
        stroke-width: 0px;
      }

      .cls-2 {
        fill: #3f3d56;
      }

      .cls-3 {
        fill: #e6e6e6;
      }

      .cls-4 {
        fill: #1bbc9c;
      }
    </style>
  </defs>
  <rect class="cls-2" x="4.8" y="56" width="239.2" height="21.7" transform="translate(-13.7 37.5) rotate(-16.2)"/>
  <path class="cls-2" d="M34,185.8L.1,69.6c-.5-1.8.5-3.7,2.3-4.2L226.5.1c1.8-.5,3.7.5,4.2,2.3l30,102.9-.9.3L229.8,2.7c-.4-1.3-1.7-2-3-1.6L2.7,66.4c-1.3.4-2,1.7-1.6,3l33.9,116.2-.9.3Z"/>
  <path class="cls-4" d="M211.1,105.8c-1.4,0-2.6-.9-3-2.3l-5.7-19.5c-.5-1.7.5-3.4,2.1-3.9l19.5-5.7c1.7-.5,3.4.5,3.9,2.1l5.7,19.5c.5,1.7-.5,3.4-2.1,3.9l-19.5,5.7c-.3,0-.6.1-.9.1Z"/>
  <path class="cls-4" d="M33.5,70c0-.2-.1-.4-.2-.6-1.2-3-4.6-4.4-7.6-3.2-2.5,1-4,3.7-3.5,6.4,0,.2,0,.4.1.6.7,2.5,3,4.2,5.6,4.2.5,0,1.1,0,1.6-.2,3.1-.9,4.8-4.1,3.9-7.2ZM29.2,76.2c-2.6.7-5.2-.7-6-3.3,0-.2-.1-.4-.1-.6-.4-2.6,1.4-5.1,4-5.5,2.2-.3,4.3.8,5.2,2.8,0,.2.2.4.2.6.7,2.6-.7,5.2-3.3,6h0Z"/>
  <path class="cls-4" d="M19.2,74.1c-.6-2.2.2-4.5,2-5.8-2.9-.1-5.4,2.1-5.6,5.1s2.1,5.4,5.1,5.6c1.2,0,2.4-.3,3.3-1-2.3-.1-4.2-1.6-4.8-3.8Z"/>
  <path class="cls-1" d="M169.5,98.1c-.4-1.6-2-2.5-3.6-2h0s-32.1,9-32.1,9l-3.5,1h21.7l3.5-1,12-3.3c1.6-.4,2.5-2,2-3.6Z"/>
  <path class="cls-1" d="M146.8,91.4c-.4-1.6-2-2.5-3.6-2l-48.1,13.5c-1.4.4-2.3,1.7-2.1,3.2h12.5l3.5-1,35.9-10c1.6-.4,2.5-2.1,2-3.6Z"/>
  <path class="cls-2" d="M270.7,105H37.3c-1.9,0-3.4,1.5-3.4,3.4v138.2c0,1.9,1.5,3.4,3.4,3.4h233.4c1.9,0,3.4-1.5,3.4-3.4V108.4c0-1.9-1.5-3.4-3.4-3.4ZM273.1,246.6c0,1.3-1.1,2.4-2.4,2.4H37.3c-1.3,0-2.4-1.1-2.4-2.4V108.4c0-1.3,1.1-2.4,2.4-2.4h233.4c1.3,0,2.4,1.1,2.4,2.4v138.2Z"/>
  <path class="cls-4" d="M60,123.9c-3.2,0-5.8-2.6-5.8-5.8s2.6-5.8,5.8-5.8,5.8,2.6,5.8,5.8c0,3.2-2.6,5.8-5.8,5.8ZM60,113.2c-2.7,0-4.8,2.2-4.8,4.8s2.2,4.8,4.8,4.8,4.8-2.2,4.8-4.8c0-2.7-2.2-4.8-4.8-4.8Z"/>
  <path class="cls-4" d="M51,118.1c0-2.3,1.4-4.3,3.6-5-2.8-1-5.8.5-6.8,3.3-1,2.8.5,5.8,3.3,6.8,1.1.4,2.3.4,3.5,0-2.1-.7-3.6-2.8-3.6-5Z"/>
  <path class="cls-4" d="M83.5,186.6c-2.4,0-4.3-1.9-4.3-4.3v-13c0-2.4,1.9-4.3,4.3-4.3s4.3,1.9,4.3,4.3v13c0,2.4-1.9,4.3-4.3,4.3Z"/>
  <path class="cls-4" d="M95.1,186.6c-2.4,0-4.3-1.9-4.3-4.3v-13c0-2.4,1.9-4.3,4.3-4.3s4.3,1.9,4.3,4.3v13c0,2.4-1.9,4.3-4.3,4.3Z"/>
  <path class="cls-4" d="M106.7,186.6c-2.4,0-4.3-1.9-4.3-4.3v-13c0-2.4,1.9-4.3,4.3-4.3s4.3,1.9,4.3,4.3v13c0,2.4-1.9,4.3-4.3,4.3Z"/>
  <path class="cls-4" d="M124.6,186.6c-2.4,0-4.3-1.9-4.3-4.3v-13c0-2.4,1.9-4.3,4.3-4.3s4.3,1.9,4.3,4.3v13c0,2.4-1.9,4.3-4.3,4.3Z"/>
  <path class="cls-4" d="M136.2,186.6c-2.4,0-4.3-1.9-4.3-4.3v-13c0-2.4,1.9-4.3,4.3-4.3s4.3,1.9,4.3,4.3v13c0,2.4-1.9,4.3-4.3,4.3Z"/>
  <path class="cls-4" d="M147.8,186.6c-2.4,0-4.3-1.9-4.3-4.3v-13c0-2.4,1.9-4.3,4.3-4.3s4.3,1.9,4.3,4.3v13c0,2.4-1.9,4.3-4.3,4.3Z"/>
  <path class="cls-4" d="M165.7,186.6c-2.4,0-4.3-1.9-4.3-4.3v-13c0-2.4,1.9-4.3,4.3-4.3s4.3,1.9,4.3,4.3v13c0,2.4-1.9,4.3-4.3,4.3Z"/>
  <path class="cls-4" d="M177.3,186.6c-2.4,0-4.3-1.9-4.3-4.3v-13c0-2.4,1.9-4.3,4.3-4.3s4.3,1.9,4.3,4.3v13c0,2.4-1.9,4.3-4.3,4.3Z"/>
  <path class="cls-4" d="M188.9,186.6c-2.4,0-4.3-1.9-4.3-4.3v-13c0-2.4,1.9-4.3,4.3-4.3s4.3,1.9,4.3,4.3v13c0,2.4-1.9,4.3-4.3,4.3Z"/>
  <path class="cls-4" d="M206.7,186.6c-2.4,0-4.3-1.9-4.3-4.3v-13c0-2.4,1.9-4.3,4.3-4.3s4.3,1.9,4.3,4.3v13c0,2.4-1.9,4.3-4.3,4.3Z"/>
  <path class="cls-4" d="M218.3,186.6c-2.4,0-4.3-1.9-4.3-4.3v-13c0-2.4,1.9-4.3,4.3-4.3s4.3,1.9,4.3,4.3v13c0,2.4-1.9,4.3-4.3,4.3Z"/>
  <path class="cls-4" d="M229.9,186.6c-2.4,0-4.3-1.9-4.3-4.3v-13c0-2.4,1.9-4.3,4.3-4.3s4.3,1.9,4.3,4.3v13c0,2.4-1.9,4.3-4.3,4.3Z"/>
  <path class="cls-3" d="M113,235h-62.6c-1.6,0-2.9-1.3-2.9-2.9s1.3-2.9,2.9-2.9h62.6c1.6,0,2.9,1.3,2.9,2.9s-1.3,2.9-2.9,2.9Z"/>
  <path class="cls-3" d="M92.9,222.4h-22.4c-1.6,0-2.9-1.3-2.9-2.9s1.3-2.9,2.9-2.9h22.4c1.6,0,2.9,1.3,2.9,2.9s-1.3,2.9-2.9,2.9Z"/>
  <rect class="cls-2" x="34.7" y="133.9" width="238.3" height="1"/>
</svg>