<?xml version="1.0" encoding="UTF-8"?>
<svg id="Ebene_1" data-name="Ebene 1" xmlns="http://www.w3.org/2000/svg" version="1.1" viewBox="0 0 499.4 250">
  <defs>
    <style>
      .cls-1 {
        fill: #ccc;
      }

      .cls-1, .cls-2, .cls-3, .cls-4, .cls-5, .cls-6, .cls-7, .cls-8, .cls-9 {
        stroke-width: 0px;
      }

      .cls-2 {
        fill: #9f616a;
      }

      .cls-3 {
        fill: #3f3d56;
      }

      .cls-4 {
        fill: #2f2e41;
      }

      .cls-5 {
        fill: #e5e5e5;
      }

      .cls-6 {
        fill: #e6e6e6;
      }

      .cls-7 {
        fill: #000;
        isolation: isolate;
        opacity: .2;
      }

      .cls-8 {
        fill: #1bbc9c;
      }

      .cls-9 {
        fill: #fff;
      }
    </style>
  </defs>
  <path class="cls-5" d="M132.2,119.3h-.9v-25.5c0-8.2-6.6-14.8-14.8-14.8h-54.1c-8.2,0-14.8,6.6-14.8,14.8v140c0,8.2,6.6,14.8,14.8,14.8h54.1c8.2,0,14.8-6.6,14.8-14.8v-96.3h.9v-18.2Z"/>
  <path class="cls-9" d="M117.1,82.8h-7.1c1.1,2.7-.2,5.7-2.9,6.8-.6.3-1.3.4-2,.4h-31c-2.9,0-5.2-2.3-5.2-5.2,0-.7.1-1.4.4-2h-6.6c-6.1,0-11,4.9-11,11h0v139.8c0,6.1,4.9,11,11,11h54.3c6.1,0,11-4.9,11-11h0V93.9c0-6.1-4.9-11-11-11h0Z"/>
  <rect class="cls-9" x="66.7" y="141.6" width="48.9" height="33"/>
  <path class="cls-3" d="M115.7,174.8h-49.2v-33.3h49.2v33.3ZM66.8,174.5h48.6v-32.7h-48.6v32.7Z"/>
  <path class="cls-6" d="M70.8,167.4h40.6v-23.1h-40.6v23.1Z"/>
  <circle class="cls-8" cx="82.7" cy="154.6" r="4.1"/>
  <path class="cls-3" d="M95.5,167.1h-20s0,0,0,0l9.4-16.4c.2-.3.6-.4.9-.3.1,0,.2.1.3.3l6.3,11,.3.5,2.8,4.9Z"/>
  <polygon class="cls-7" points="95.5 167.1 88.7 167.1 92 162.2 92.3 161.9 92.4 161.7 92.7 162.2 95.5 167.1"/>
  <path class="cls-3" d="M106.6,167.1h-17.3l3.3-4.9.2-.4,4.4-6.3c.3-.4.9-.4,1.2-.1,0,0,0,0,0,0,0,0,0,0,0,0l8,11.6Z"/>
  <path class="cls-5" d="M234.2,248.7H103.1c-6.5,0-11.7-5.2-11.7-11.7V46.9c0-6.5,5.2-11.7,11.7-11.7h131.1c6.5,0,11.7,5.2,11.7,11.7v190.1c0,6.5-5.2,11.7-11.7,11.7Z"/>
  <path class="cls-9" d="M234.4,241.2H102.9c-2,0-3.6-1.6-3.6-3.6V46.2c0-2,1.6-3.6,3.6-3.6h131.5c2,0,3.6,1.6,3.6,3.6v191.3c0,2-1.6,3.6-3.6,3.6Z"/>
  <circle class="cls-9" cx="168.1" cy="38.7" r="1"/>
  <rect class="cls-9" x="120" y="97.2" width="103.5" height="69.8"/>
  <path class="cls-3" d="M223.8,167.4h-104.2v-70.5h104.2v70.5ZM120.3,166.7h102.8v-69.1h-102.8v69.1Z"/>
  <path class="cls-6" d="M128.7,151.8h86v-49h-86v49Z"/>
  <circle class="cls-8" cx="154" cy="124.6" r="8.6"/>
  <path class="cls-3" d="M181,151.2h-42.3c0,0-.1,0-.2,0l20-34.6c.4-.7,1.2-.9,1.9-.5.2.1.4.3.5.5l13.4,23.2.6,1.1,5.9,10.3Z"/>
  <polygon class="cls-7" points="181 151.2 166.6 151.2 173.7 140.9 174.2 140.1 174.5 139.8 175.1 140.9 181 151.2"/>
  <path class="cls-3" d="M204.6,151.2h-36.6l7.1-10.3.5-.7,9.2-13.4c.6-.8,1.8-.9,2.6-.3,0,0,.1,0,.1.1,0,0,0,.1.1.2l16.8,24.4Z"/>
  <path class="cls-6" d="M364.3,246.4l-6.6-2.8-4.6-33.3h-60.6l-4.9,33.1-5.9,3c-.7.3-1,1.2-.6,1.9.2.5.7.8,1.3.8h81.5c.8,0,1.4-.6,1.4-1.4,0-.6-.3-1.1-.9-1.3Z"/>
  <path class="cls-1" d="M472,214.8H174.3c-3.3,0-5.9-2.6-5.9-5.9v-42h309.5v42c0,3.3-2.6,5.9-5.9,5.9Z"/>
  <path class="cls-5" d="M478.2,186.7H168.1V7.1c0-3.9,3.2-7.1,7.1-7.1h295.8c3.9,0,7.1,3.2,7.1,7.1v179.6Z"/>
  <path class="cls-9" d="M459.7,173.7H186.7c-3,0-5.5-2.5-5.5-5.5V18.5c0-3,2.5-5.5,5.5-5.5h273c3,0,5.5,2.5,5.5,5.5v149.7c0,3-2.5,5.5-5.5,5.5Z"/>
  <path class="cls-1" d="M498.7,250H.7c-.3,0-.6-.2-.7-.5,0-.4.1-.8.5-.8,0,0,.1,0,.2,0h498c.3,0,.6.2.7.5,0,.4-.2.7-.5.8,0,0,0,0-.1,0Z"/>
  <path class="cls-4" d="M388,66.1c1.4-4.5,4.6-8.6,9-10.1,4.4-1.5,12.1,0,14.2,4.1,3,6,1.6,13.4,0,20-.8,0-1.7,0-2.5-.1l-1.2-4v3.9c-6.5-.2-13.4,0-20.2,0-.6-4.6-.8-9.5.6-13.9Z"/>
  <polygon class="cls-2" points="448.2 236.3 442.6 238.6 431.1 218.4 439.3 215 448.2 236.3"/>
  <path class="cls-4" d="M451.8,241l-17.7,7.4v-.2c-1.7-3.8.1-8.2,3.9-9.8h0s10.8-4.5,10.8-4.5l3,7.1Z"/>
  <path class="cls-2" d="M367.4,141.1c-1.3-1.9-.8-4.4,1-5.7.2-.1.4-.3.6-.4l11.8-35.7,7.9,4.2-14.1,33.8c.8,2.1-.3,4.5-2.4,5.4-1.8.7-3.8,0-4.9-1.5h0Z"/>
  <polygon class="cls-2" points="382 242.7 376 242.7 373.2 219.6 382 219.6 382 242.7"/>
  <path class="cls-4" d="M383.5,248.4h-19.2v-.2c0-4.1,3.4-7.5,7.5-7.5h11.8s0,7.7,0,7.7Z"/>
  <polygon class="cls-2" points="405.9 111.7 407.3 115.2 407 118.7 381.1 115.5 381.9 112.5 384.8 109 405.9 111.7"/>
  <circle class="cls-2" cx="397.6" cy="70.6" r="9.5"/>
  <path class="cls-8" d="M387.6,86.8l5.4-3.2,10.8-1.1,9.6,2.2v17.6c0,0-6,13-6,13l-25.4-2.7-1.1-3.5s-7-9.4.5-14.9l6.2-7.3Z"/>
  <path class="cls-8" d="M388.9,87.6l-1.4-.8s-7.3,1.4-8.9,5.7-3.2,23.8-3.2,23.8l6.8.8,2.4-15.9,4.3-13.5Z"/>
  <path class="cls-4" d="M407.3,117.4v6s7,9.1,3.2,16.2c0,0,8.1,15.1,8.7,20.6l7.6,24.9s18.9,18.9,17.3,32.5l1.1,4.3-12.4,5.4-2.7-3.8-21.1-36.2-17.9-33-3.2,38.9s2.2,30.3-3.8,33.5l-.5,4.9h-12.6v-4.6s-4.7-16.5-2-28.9l-1.1-52.5s4.9-22.2,10.8-26l2.2-5.4,26.5,3.2Z"/>
  <path class="cls-4" d="M391.1,58.3c5.6-3.4,12.9-1.6,16.3,4,1.2,1.9,1.8,4.1,1.7,6.4-5.3.2-10.8.3-16.5.3l-1.3-3.3-.8,3.3c-1.7,0-3.4,0-5.2,0-.1-4.3,2-8.4,5.7-10.7Z"/>
  <rect class="cls-9" x="257.4" y="74.3" width="131.3" height="88.6" transform="translate(-19.3 83.3) rotate(-14.3)"/>
  <path class="cls-3" d="M398.1,145.6l-128.1,32.6-22.1-86.7,128.1-32.6,22.1,86.7ZM270.6,177.1l126.4-32.1-21.6-85-126.4,32.1,21.6,85Z"/>
  <path class="cls-6" d="M276.3,156.1l105.8-26.9-15.3-60.2-105.8,26.9,15.3,60.2Z"/>
  <circle class="cls-8" cx="298.9" cy="114.8" r="10.9"/>
  <path class="cls-3" d="M340.4,139l-52,13.2c0,0-.1,0-.2,0l13.8-48.9c.3-.9,1.2-1.5,2.2-1.2.3,0,.6.3.8.5l23.8,24.4,1.1,1.2,10.5,10.8Z"/>
  <polygon class="cls-7" points="340.4 139 322.7 143.6 328.2 128.7 328.6 127.6 328.8 127.1 329.9 128.2 340.4 139"/>
  <path class="cls-3" d="M369.4,131.7l-45,11.4,5.5-14.9.4-1.1,7.2-19.4c.5-1.2,1.9-1.7,3.1-1.2,0,0,.2,0,.2.1,0,0,.1.1.2.2l28.3,24.8Z"/>
  <path class="cls-2" d="M398.3,129.8c.2,0,.4.1.6.2l16.5-11.4-.4-4.9,7.2-1.5,1.5,8.5c.2,1.4-.5,2.8-1.8,3.5l-20.4,10.1c-.2,2.3-2.3,4.1-4.6,3.8s-4.1-2.3-3.8-4.6c.2-2.3,2.3-4.1,4.6-3.8.2,0,.3,0,.5,0Z"/>
  <path class="cls-8" d="M409.5,85.5l3.9-.8s8.6-3,9.1,7.8l1.1,25.4-8,1.1-3.3-22.2-2.7-11.4Z"/>
</svg>