<?xml version="1.0" encoding="UTF-8"?>
<svg id="Ebene_1" data-name="Ebene 1" xmlns="http://www.w3.org/2000/svg" version="1.1" viewBox="0 0 350.6 250">
  <defs>
    <style>
      .cls-1 {
        fill: #ccc;
      }

      .cls-1, .cls-2, .cls-3, .cls-4, .cls-5, .cls-6, .cls-7, .cls-8, .cls-9 {
        stroke-width: 0px;
      }

      .cls-2 {
        fill: #3f3d56;
      }

      .cls-3 {
        fill: #ffb8b8;
      }

      .cls-4 {
        fill: #2f2e41;
      }

      .cls-5 {
        fill: #cacaca;
      }

      .cls-6 {
        fill: #000;
        isolation: isolate;
        opacity: .1;
      }

      .cls-7 {
        fill: #f1f1f1;
      }

      .cls-8 {
        fill: #1bbc9c;
      }

      .cls-9 {
        fill: #fff;
      }
    </style>
  </defs>
  <path class="cls-7" d="M320.2,224.9c3.1,5.4.5,23.8.5,23.8,0,0-17.1-7.2-20.2-12.7-3.1-5.4-1.2-12.3,4.3-15.4,5.4-3.1,12.3-1.2,15.4,4.3Z"/>
  <path class="cls-9" d="M320.9,248.7h-.4c-3.5-16.5-15.7-27.8-15.8-27.9l.2-.3c.1.1,12.4,11.4,15.9,28.2Z"/>
  <path class="cls-7" d="M348.1,231.1c-4.2,7.6-27.7,17.8-27.7,17.8,0,0-3.9-25.4.3-32.9,4.2-7.6,13.7-10.3,21.3-6.1,7.6,4.2,10.3,13.7,6.1,21.3h0Z"/>
  <path class="cls-9" d="M320.6,249.2l-.4-.4c17-16.2,21.4-38.7,21.5-38.9h.5c0,.3-4.5,23-21.6,39.3Z"/>
  <path class="cls-2" d="M82.4,173.8c-2.7,0-5.4-.4-8-1h-.5c0-.1-.5-.4-.5-.4-17.2-8.6-31.8-20-43.2-33.9-9.5-11.5-16.8-24.6-21.8-38.7C2.5,82.9-.3,65.1,0,47.2c0-.4,0-.7,0-.9C0,37.7,4.9,30,12.3,26.9c5.7-2.4,57.6-23.7,61.3-25.2,7.1-3.5,14.6-.6,15.8,0,2.7,1.1,50.6,20.7,61,25.6,10.7,5.1,13.5,14.2,13.5,18.8,0,20.8-3.6,40.2-10.7,57.8-5.7,14.2-13.9,27.3-24,38.7-19.6,22.1-39.3,29.9-39.4,30-2.3.8-4.8,1.2-7.3,1.2ZM77.8,162.3c1.7.4,5.6,1,8.2,0,3.2-1.2,19.7-9.7,35-27,21.2-23.9,32-53.9,32-89.2,0-.7-.5-5.8-7.3-9-10.2-4.8-60-25.2-60.5-25.4h-.1c-1-.5-4.4-1.4-6.7-.2l-.5.2c-.6.2-55.6,22.8-61.5,25.3-4.1,1.7-5.6,5.9-5.6,9.3s0,.6,0,1.1c-.5,24.2,5.1,83.6,66.9,114.9Z"/>
  <path class="cls-8" d="M75.9,6.7S20.4,29.5,14.4,32c-6,2.5-8.9,8.4-8.9,14.4s-4.5,83.6,70.4,121.1c0,0,6.8,1.9,12,0,5.2-1.9,70.6-33.6,70.6-121.4,0,0,0-8.9-10.4-13.9-10.4-5-60.8-25.5-60.8-25.5,0,0-6.2-2.7-11.4,0Z"/>
  <path class="cls-6" d="M81.9,24.5v121.7S25.8,119.2,26.3,48.3l55.5-23.8Z"/>
  <polygon class="cls-9" points="82.6 112 64.7 89 75.1 81 83.6 91.8 112.1 61.7 121.7 70.7 82.6 112"/>
  <path class="cls-5" d="M350.2,250h-163.1c-.2,0-.4-.2-.4-.4s.2-.4.4-.4h163.1c.2,0,.4.2.4.4s-.2.4-.4.4Z"/>
  <polygon class="cls-3" points="234.3 243.3 240.9 243.3 244 217.7 234.2 217.7 234.3 243.3"/>
  <path class="cls-4" d="M232.6,241.1h13s0,0,0,0c4.6,0,8.3,3.7,8.3,8.3v.3h-21.3s0-8.6,0-8.6Z"/>
  <polygon class="cls-3" points="256.5 243.3 263.1 243.3 266.3 217.7 256.5 217.7 256.5 243.3"/>
  <path class="cls-4" d="M254.8,241.1h13s0,0,0,0c4.6,0,8.3,3.7,8.3,8.3v.3h-21.3s0-8.6,0-8.6Z"/>
  <polygon class="cls-4" points="244.7 153.6 246.2 234.6 233.4 233.8 224.5 182.2 221.7 147 244.7 153.6"/>
  <path class="cls-4" d="M266.7,140l1.8,95.9-15-.4-3.2-57-5.6-20.6-23-10.8,3.8-25.8,33.8-.5,7.5,19.2Z"/>
  <circle class="cls-3" cx="240.9" cy="42.6" r="11.5"/>
  <polygon class="cls-1" points="250.4 59 252.2 61.6 256.9 74.8 253.1 125.9 231.1 126.4 228.2 67.7 234.1 60.4 250.4 59"/>
  <path class="cls-4" d="M219.3,69.1l-3.8-.5s-.9.5-1.4,3.8-6.1,32.4-6.1,32.4l7.5,35.7,8.4-11.3-5.2-19.7,5.2-19.7-4.7-20.6Z"/>
  <polygon class="cls-4" points="267.2 68.7 270 68.7 277 106.7 270.5 136.2 263.9 125.4 265.8 113.7 264.8 103.4 261.5 97.3 267.2 68.7"/>
  <path class="cls-4" d="M247.7,42.6l-2.1-.5s-1.6-8.9-5.2-7.8-13.1,2.1-13.1-2.1,8.9-7.8,14.1-7.3,11.9,2.3,13.6,9.9c2.7,12.3-5.6,15.4-5.6,15.4v-.4c.9-2.5.2-5.3-1.7-7.1Z"/>
  <path class="cls-4" d="M216,68.7l15-6.1,3.5-2.6,10.6,46.7,4.9-48.1,19.5,10.1-6.6,31.9-.9,12.2,2.8,9.9s9.9,7,6.6,14.5c-3.3,7.5-7,8-7,8,0,0-15.9-15-16.9-18.8s-2.3-10.3-2.3-10.3c0,0-8,30-17.4,29.6-9.4-.5-9.4-10.3-9.4-10.3l2.3-10.3,3.8-10.8-1.9-17.8-6.6-27.7Z"/>
</svg>