<?xml version="1.0" encoding="UTF-8"?>
<svg id="Ebene_1" data-name="Ebene 1" xmlns="http://www.w3.org/2000/svg" version="1.1" viewBox="0 0 255.8 250">
  <defs>
    <style>
      .cls-1 {
        fill: #ccc;
      }

      .cls-1, .cls-2, .cls-3, .cls-4, .cls-5, .cls-6, .cls-7, .cls-8, .cls-9 {
        stroke-width: 0px;
      }

      .cls-2 {
        fill: #a0616a;
      }

      .cls-3 {
        fill: #3f3d56;
      }

      .cls-4 {
        fill: #f2f2f2;
      }

      .cls-5 {
        fill: #2f2e41;
      }

      .cls-6 {
        fill: #cacaca;
      }

      .cls-7 {
        fill: #e6e6e6;
      }

      .cls-8 {
        fill: #1bbc9c;
      }

      .cls-9 {
        fill: #fff;
      }
    </style>
  </defs>
  <path class="cls-4" d="M79.1,234l.3-6.2c2.9-1.5,6-2.3,9.3-2.3-4.5,3.6-3.9,10.7-6.9,15.6-1.9,3.1-5.2,5.1-8.8,5.5l-3.7,2.3c-1-5.8.5-11.7,4.2-16.2,1-1.2,2.2-2.4,3.6-3.3.9,2.4,2.1,4.7,2.1,4.7Z"/>
  <path class="cls-4" d="M233.2,144.3c10.1-7.7,14.9-20.5,11.8-32.8,0-.3-.2-.6-.2-.9-2-7.3-6.9-14.2-14.1-16.5-6-2-12.6-.5-18.9-1.2-12.4-1.5-21.9-11.5-28.7-22-6.7-10.5-11.9-22.2-20.9-30.8-14.8-14.3-38.8-17.3-57.2-8-18.3,9.3-30,29.9-29.5,50.4.5,20.5,12.7,40.1,30.4,50.5,6.5,3.8,14,6.5,21.5,5.6,6.5-.8,12.4-4.3,18.8-5.3,10.2-1.6,20.2,3,29,8.3,8.8,5.4,17.3,11.7,27.2,14.2,9.7,2.4,21.7-4.5,30.6-11.3Z"/>
  <path class="cls-9" d="M153.7,52.7H53.5c-4.3,0-7.9,3.5-7.9,7.9v49.8c0,4.3,3.5,7.9,7.9,7.9h100.2c4.3,0,7.9-3.5,7.9-7.9v-49.8c0-4.3-3.5-7.9-7.9-7.9Z"/>
  <path class="cls-1" d="M153.7,118.7H53.5c-4.6,0-8.3-3.7-8.3-8.3v-49.8c0-4.6,3.7-8.3,8.3-8.3h100.1c4.6,0,8.3,3.7,8.3,8.3v49.8c0,4.6-3.7,8.3-8.3,8.3ZM53.5,53.1c-4.1,0-7.5,3.4-7.5,7.5v49.8c0,4.1,3.4,7.5,7.5,7.5h100.1c4.1,0,7.5-3.4,7.5-7.5v-49.8c0-4.1-3.4-7.5-7.5-7.5H53.5Z"/>
  <path class="cls-7" d="M158.3,132.5H62.3c-1.7,0-3.1-1.4-3.1-3.1s1.4-3.1,3.1-3.1h96c1.7,0,3.1,1.4,3.1,3.1s-1.4,3.1-3.1,3.1Z"/>
  <path class="cls-4" d="M93.1,102.6c-.6,0-1.1-.1-1.6-.4-1.1-.6-1.8-1.7-1.7-3v-27.8c0-1.9,1.5-3.4,3.4-3.4.6,0,1.3.2,1.8.5l26.4,13.9c1.6,1,2,3.1,1,4.6-.3.4-.6.8-1,1l-26.4,13.9c-.5.3-1.2.5-1.8.5Z"/>
  <path class="cls-9" d="M248,88.8h-41.9c-1.8,0-3.3-1.5-3.3-3.3v-20.8c0-1.8,1.5-3.3,3.3-3.3h41.9c1.8,0,3.3,1.5,3.3,3.3v20.8c0,1.8-1.5,3.3-3.3,3.3Z"/>
  <path class="cls-1" d="M248,89.1h-41.9c-2,0-3.7-1.6-3.7-3.7v-20.8c0-2,1.6-3.7,3.7-3.7h41.9c2,0,3.7,1.6,3.7,3.7v20.8c0,2-1.6,3.7-3.7,3.7ZM206.2,61.7c-1.6,0-2.9,1.3-2.9,2.9v20.8c0,1.6,1.3,2.9,2.9,2.9h41.9c1.6,0,2.9-1.3,2.9-2.9v-20.8c0-1.6-1.3-2.9-2.9-2.9h-41.9Z"/>
  <path class="cls-7" d="M241.2,99h-28.2c-1.7,0-3.1-1.4-3.1-3.1,0-1.7,1.4-3.1,3.1-3.1h28.2c1.7,0,3.1,1.4,3.1,3.1s-1.4,3.1-3.1,3.1Z"/>
  <path class="cls-8" d="M222.6,82.5c-.2,0-.5,0-.7-.2-.5-.2-.7-.7-.7-1.2v-11.6c0-.8.6-1.4,1.4-1.4.3,0,.5,0,.8.2l11,5.8c.7.4.8,1.3.4,1.9-.1.2-.3.3-.4.4l-11,5.8c-.2.1-.5.2-.8.2Z"/>
  <path class="cls-9" d="M221.3,178.4h-41.9c-1.8,0-3.3-1.5-3.3-3.3v-20.8c0-1.8,1.5-3.3,3.3-3.3h41.9c1.8,0,3.3,1.5,3.3,3.3v20.8c0,1.8-1.5,3.3-3.3,3.3Z"/>
  <path class="cls-1" d="M221.3,178.8h-41.9c-2,0-3.7-1.6-3.7-3.7v-20.8c0-2,1.6-3.7,3.7-3.7h41.9c2,0,3.7,1.6,3.7,3.7v20.8c0,2-1.6,3.7-3.7,3.7ZM179.4,151.3c-1.6,0-2.9,1.3-2.9,2.9v20.8c0,1.6,1.3,2.9,2.9,2.9h41.9c1.6,0,2.9-1.3,2.9-2.9v-20.8c0-1.6-1.3-2.9-2.9-2.9h-41.9Z"/>
  <path class="cls-7" d="M214.4,188.6h-28.2c-1.7,0-3.1-1.4-3.1-3.1,0-1.7,1.4-3.1,3.1-3.1h28.2c1.7,0,3.1,1.4,3.1,3.1s-1.4,3.1-3.1,3.1h0Z"/>
  <path class="cls-8" d="M195.8,172.7c-.2,0-.5,0-.7-.2-.5-.2-.7-.7-.7-1.2v-11.6c0-.8.6-1.4,1.4-1.4.3,0,.5,0,.8.2l11,5.8c.7.4.8,1.3.4,1.9-.1.2-.3.3-.4.4l-11,5.8c-.2.1-.5.2-.8.2Z"/>
  <path class="cls-2" d="M79.2,106.3h-21.4c0,.1-12.2-3.8-17.7-3l-2.1,8.3,15.2,5,26.4-3.8c1.9.9,4.1.2,5.1-1.7.9-1.9.2-4.1-1.7-5.1-1.2-.6-2.7-.5-3.8.2h0Z"/>
  <path class="cls-3" d="M52.9,117.5l-25.4-7.3-2.3-8.6c-1.2-2.3-1-5.2.5-7.3h0c2.2-2.9,3.9,0,6.9,1.9,5.4.4,18.9,5,24.3,10.3l-.4,3.3-3.7,7.7Z"/>
  <path class="cls-8" d="M75,110.4c-.6,0-1.1-.1-1.6-.4-1.1-.6-1.8-1.7-1.7-3v-27.8c0-1.9,1.5-3.4,3.4-3.4.6,0,1.3.2,1.8.5l26.4,13.9c1.6,1,2,3.1,1,4.6-.3.4-.6.8-1,1l-26.4,13.9c-.5.3-1.2.5-1.8.5Z"/>
  <polygon class="cls-2" points="57.3 244.4 62.7 244.4 65.3 223.6 57.3 223.6 57.3 244.4"/>
  <path class="cls-5" d="M55.9,242.7h1.5s5.9-2.4,5.9-2.4l3.2,2.4h0c3.7,0,6.8,3,6.8,6.8v.2h-17.4s0-7,0-7Z"/>
  <polygon class="cls-2" points="18.8 239.3 23.9 241.1 33.1 222.2 25.5 219.6 18.8 239.3"/>
  <path class="cls-5" d="M18.1,237.2l1.4.5,6.4-.4,2.2,3.3h0c3.5,1.2,5.5,5.1,4.3,8.6v.2c0,0-16.6-5.6-16.6-5.6l2.2-6.6Z"/>
  <path class="cls-5" d="M25.1,154.6s-.6,7.6.9,14.8c1.6,7.3,5,31.4,5,31.4-6.9,11.3-10.9,22.4-11.6,33.7l9.7.8,13.9-32.9,1.4-32.9,10.1,22.4-.5,1.7c-.3.8,0,1.7.8,2.2h0s-.9,6.2-.3,6.2,2.2.9,2.2.9c-3.9,12.3-4.5,24-.9,35.1l8.5-.4,5.6-48.3-4.1-26.2-.3-5.1h-1.4c0,0-.7-2.1-.7-2.1l-1.3-3.6-36.9,2.2Z"/>
  <path class="cls-3" d="M24.5,156.2h0c-3-4.3,1.5-14.4,2.2-15.9l-2.9-.9-2.5-21.2-1.8-7.3c-1.4-5.6.3-11.6,4.6-15.6l4.2-4,5.2-7.6h8.3l2.9,5.4c5.7,1.3,9.7,6.5,9.4,12.4l-.6,14.1,2.5,17.6v3.2s4.4,7.2,4.4,7.2l1,4.5c.4.5,3,4,3,5s-.1.3-.3.4c-1.8,1.2-11.6,3.7-16,1.9-4.6-1.9-23.1.9-23.3,1h0Z"/>
  <path class="cls-1" d="M109.5,249.5c0,.3-.2.5-.5.5H.5C.2,250,0,249.8,0,249.5s.2-.5.5-.5h108.6c.3,0,.5.2.5.5h0Z"/>
  <circle class="cls-2" cx="38.7" cy="70.1" r="11"/>
  <path class="cls-2" d="M79.6,78.6l-17,13s-12.1,4.2-16,8.2l3.3,7.9,15.2-5.2,18.8-19c2.1-.4,3.4-2.3,3-4.4-.4-2.1-2.3-3.4-4.4-3-1.3.2-2.4,1.2-2.9,2.5Z"/>
  <path class="cls-3" d="M65.4,103.3l-23.6,6.9-8.1-2.9c-2.4-1.1-3.9-3.5-4-6.2h0c0-3.7,3.1-2.3,6.7-2.6,4.5-3,18.1-7.4,25.6-6.5l1.6,2.9,1.7,8.4Z"/>
  <path class="cls-5" d="M46.2,57.4c-.8,0-.5-1.5-1.2-2,0,0,0,0,0,0-.2.8-1.1,1.3-1.9,1.1-.5-.1-.9-.5-1.1-1-.2-.7-.8-1.3-1.5-1.6,0,1.4-1.1,2.6-2.3,3.2s-2.7.7-4,.7c-1.4,0-2.8,0-4.1.3-1.3.3-2.6,1.1-3.2,2.4-.6,1.3-.2,3,1.1,3.6-1,0-1.8.8-2.1,1.7-.3.9-.3,1.9-.2,2.9.3,3.6.9,7.4,3.5,9.9,2,1.9,4.8,2.6,7.5,2.6,2.7,0,2.2-.3,4.9-1,0,0,2.5-7.2,1.9-7.9-.6-.7-1.2-1.6-1-2.5s1.1-1.8,2-1.4c-.1-.4-.3-.4-.3-.4,0-.1,0-.2.1-.3.3-1.1,1.2-2.1,2.3-2.5,1.1-.4,2.4,0,3.2,1,2.9-2.7,1.1-8.6-3.5-8.7Z"/>
  <path class="cls-6" d="M232.7,13.4H56.7c-.4,0-.7-.3-.7-.7,0-.4.3-.7.7-.7h176c.4,0,.7.3.7.7,0,.4-.3.7-.7.7Z"/>
  <ellipse class="cls-3" cx="68.7" cy="4.2" rx="4.1" ry="4.2"/>
  <ellipse class="cls-3" cx="82.8" cy="4.2" rx="4.1" ry="4.2"/>
  <ellipse class="cls-3" cx="97" cy="4.2" rx="4.1" ry="4.2"/>
  <path class="cls-3" d="M224.1,1h-10.1c-.4,0-.8.4-.7.8,0,.4.3.7.7.7h10.1c.4,0,.8-.4.7-.8,0-.4-.3-.7-.7-.7Z"/>
  <path class="cls-3" d="M224.1,3.9h-10.1c-.4,0-.8.4-.7.8,0,.4.3.7.7.7h10.1c.4,0,.8-.4.7-.8,0-.4-.3-.7-.7-.7Z"/>
  <path class="cls-3" d="M224.1,6.8h-10.1c-.4,0-.8.4-.7.8,0,.4.3.7.7.7h10.1c.4,0,.8-.4.7-.8,0-.4-.3-.7-.7-.7Z"/>
  <path class="cls-1" d="M139.1,52.7v10.5c0,.5-.9,1-2.1,1.1,0,0,0,0,0,0-.2,0-.4,0-.6,0-.7,0-1.4,0-2-.3,0,0-.1,0-.2,0,0,0-.1,0-.2,0-.3-.2-.5-.4-.5-.6v-10.5h5.6Z"/>
  <circle class="cls-3" cx="224.7" cy="177.3" r="4.8"/>
  <path class="cls-9" d="M224.3,179.2s0,0,0,0c-.2,0-.4,0-.5-.2l-.8-1c-.2-.3-.2-.7.1-.9,0,0,0,0,0,0h0c.3-.2.7-.2.9,0,0,0,0,0,0,0,.2.2.4.2.6,0,0,0,0,0,0,0l1.6-1.7c.2-.3.6-.3.9,0h0c.3.3.3.7,0,.9,0,0,0,0,0,0l-2.5,2.7c-.1.1-.3.2-.5.2Z"/>
  <circle class="cls-3" cx="251" cy="88.2" r="4.8"/>
  <path class="cls-9" d="M250.7,90.1s0,0,0,0c-.2,0-.4,0-.5-.2l-.8-1c-.2-.3-.2-.7.1-.9,0,0,0,0,0,0h0c.3-.2.7-.2.9,0,0,0,0,0,0,0,.2.2.4.2.6,0,0,0,0,0,0,0l1.6-1.7c.2-.3.6-.3.9,0h0c.3.3.3.7,0,.9,0,0,0,0,0,0l-2.5,2.7c-.1.1-.3.2-.5.2Z"/>
</svg>