<?xml version="1.0" encoding="UTF-8"?>
<svg id="Ebene_1" data-name="Ebene 1" xmlns="http://www.w3.org/2000/svg" version="1.1" viewBox="0 0 429.1 250">
  <defs>
    <style>
      .cls-1 {
        fill: #a0616a;
      }

      .cls-1, .cls-2, .cls-3, .cls-4, .cls-5, .cls-6, .cls-7, .cls-8, .cls-9, .cls-10, .cls-11 {
        stroke-width: 0px;
      }

      .cls-2 {
        fill: #d0cde1;
      }

      .cls-3 {
        fill: #3f3d56;
      }

      .cls-4 {
        fill: #f2f2f2;
      }

      .cls-5 {
        fill: #2f2e41;
      }

      .cls-6 {
        opacity: .1;
      }

      .cls-6, .cls-7 {
        fill: #000;
        isolation: isolate;
      }

      .cls-7 {
        opacity: 0;
      }

      .cls-8 {
        fill: #8a8b8c;
      }

      .cls-9 {
        fill: #1bbc9c;
      }

      .cls-10 {
        fill: #ffb9b9;
      }

      .cls-11 {
        fill: #ff6584;
      }
    </style>
  </defs>
  <circle class="cls-4" cx="138.6" cy="121.9" r="121.9"/>
  <path class="cls-3" d="M429.1,216.2c0,.3,0,.6,0,.9-3,18.3-97.9,32.9-214.5,32.9S3.1,235.3,0,217.1c0-.3,0-.6,0-.9C0,216.1,0,216,0,215.9c0,0,0,0,0-.1,0,0,0,0,0,0,0-.2,0-.4,0-.6,1.4-7.5,18.1-14.3,45.4-19.8,22.3-4.5,51.7-8.1,85.5-10.3,25.7-1.7,53.9-2.7,83.5-2.7s46.8.6,68.2,1.7h0c4.5.2,8.9.5,13.2.8,29.8,1.9,56.2,4.9,77.5,8.6,13.1,2.3,24.2,4.8,33.1,7.6h0c13.5,4.3,21.5,9.1,22.5,14.1,0,.2,0,.4,0,.6,0,0,0,0,0,0,0,0,0,0,0,.1,0,0,0,.2,0,.3Z"/>
  <ellipse class="cls-6" cx="209.1" cy="238.7" rx="68.9" ry="10"/>
  <path class="cls-6" d="M406.5,201.1c-2.4.7-5.1,1.3-8.1,1.9-12.3,2.4-29,3.9-47.4,3.9s-39-1.8-51.5-4.8c-10.4-2.4-16.6-5.6-16.6-9.1s4.9-5.9,13.1-8.2c29.8,1.9,56.2,4.9,77.5,8.6,13.1,2.3,24.2,4.8,33.1,7.6Z"/>
  <path class="cls-6" d="M222,196.5c0,6.3-39.6,11.4-88.5,11.4s-88.5-5.1-88.5-11.4c0-.4.2-.8.4-1.1,22.3-4.5,51.7-8.1,85.5-10.3.8,0,1.7,0,2.6,0,48.9,0,88.5,5.1,88.5,11.4Z"/>
  <rect class="cls-9" x="173.8" y="139.8" width="17.4" height="56.2"/>
  <rect class="cls-9" x="116.7" y="113.5" width="17.4" height="82.5"/>
  <rect class="cls-9" x="60" y="113.5" width="17.4" height="82.5"/>
  <rect class="cls-9" x="88.3" y="113.5" width="17.4" height="56.2"/>
  <rect class="cls-9" x="145" y="113.5" width="17.4" height="16.4"/>
  <rect class="cls-8" x="145" y="139.8" width="17.4" height="56.2"/>
  <rect class="cls-9" x="173.8" y="113.5" width="45.7" height="16.4"/>
  <path class="cls-9" d="M340.2,108.5c11.9,0,22,4.2,30.4,12.5,3.9,3.9,7,8.6,9.1,13.7,4.1,10.5,4.2,22.2,0,32.7-2,5.1-5.1,9.7-9.1,13.5-4,4-8.8,7.2-14.1,9.4-5.2,2.2-10.7,3.3-16.3,3.3-5.5,0-11-1.1-16.1-3.2-10.4-4.4-18.7-12.7-23.1-23.1-4.3-10.4-4.3-22,0-32.4,2.2-5.2,5.4-10,9.4-13.9,8.1-8.2,18-12.4,29.8-12.4ZM340.3,116.2c-9.7,0-17.9,3.4-24.5,10.2-3.3,3.3-5.9,7.2-7.7,11.4-3.6,8.4-3.6,18,0,26.4,3.7,8.5,10.5,15.3,19,18.9,8.5,3.5,18,3.5,26.5,0,4.3-1.8,8.2-4.4,11.6-7.7,6.6-6.5,9.9-14.6,9.9-24.4,0-4.6-.9-9.1-2.6-13.4-1.7-4.2-4.3-8-7.5-11.2-6.8-6.8-15.1-10.3-24.7-10.3h0ZM339.8,144l-5.7,3c-.5-1.1-1.2-2-2.2-2.7-.7-.5-1.6-.7-2.5-.8-3.8,0-5.7,2.5-5.7,7.5,0,2.3.5,4.1,1.4,5.5,1,1.4,2.4,2.1,4.3,2.1,2.5,0,4.2-1.2,5.2-3.6l5.2,2.7c-2.2,4.1-6.5,6.7-11.2,6.7-3.8,0-6.9-1.2-9.2-3.5-2.3-2.3-3.5-5.6-3.5-9.7s1.2-7.3,3.5-9.6c2.4-2.4,5.3-3.6,8.9-3.6,5.3,0,9,2,11.3,6.1h0ZM364.3,144l-5.6,3c-.5-1.1-1.2-2-2.2-2.7-.8-.5-1.6-.7-2.5-.8-3.8,0-5.7,2.5-5.7,7.5,0,2.3.5,4.1,1.4,5.5,1,1.4,2.4,2.1,4.3,2.1,2.5,0,4.2-1.2,5.2-3.6l5.3,2.7c-1.1,2-2.7,3.7-4.7,4.9-1.9,1.2-4.2,1.8-6.5,1.8-3.8,0-6.9-1.2-9.2-3.5-2.3-2.3-3.5-5.6-3.5-9.7,0-4.1,1.2-7.3,3.5-9.6,2.4-2.4,5.3-3.6,8.9-3.6,5.3,0,9,2,11.2,6.1h0Z"/>
  <path class="cls-6" d="M314.4,213c0,20.3-28.4,14-63.1,14s-62.6,6.3-62.6-14,28.3-24.8,63.1-24.8,62.7,4.4,62.7,24.8Z"/>
  <path class="cls-3" d="M314.4,208c0,20.3-28.4,14-63.1,14s-62.6,6.3-62.6-14,28.3-24.8,63.1-24.8,62.7,4.4,62.7,24.8Z"/>
  <path class="cls-5" d="M308.7,171.5l1.4,5.9c0,0,0,.1,0,.2l-6.5,20.3c0,.2-.3.3-.5.2-.1,0-.2-.2-.3-.3l-.9-7.9c0,0,0-.1,0-.2l6-18.3c0-.2.3-.3.5-.2.1,0,.2.1.2.3Z"/>
  <polygon class="cls-4" points="308.1 172 309.5 177 303.7 195.6 302.4 189.8 308.1 172"/>
  <path class="cls-5" d="M279.2,199.5c.2.7,22.9-.2,23.2-.4.2-.3.4-.6.5-.9.2-.4.4-.9.4-.9l-.9-7.1-22.5-.8s-.6,6.1-.7,8.8c0,.4,0,.9,0,1.3Z"/>
  <polygon class="cls-6" points="299.5 191.2 300 197.3 290 197.3 290 191.2 299.5 191.2"/>
  <polygon class="cls-6" points="286.7 193.1 286.8 193.1 286.5 195.8 281 195.8 281 193.1 286.7 193.1"/>
  <path class="cls-6" d="M279.2,199.5c.2.7,22.9-.2,23.2-.4.2-.3.4-.6.5-.9h-23.7c0,.4,0,.9,0,1.3Z"/>
  <path class="cls-5" d="M244.2,176.4h6.2l15.2-6s10.8-4.4,9.9,4c-.9,8.4-2.4,19.6-2.4,19.6,0,0-4.9-2.2-7.5-1.5s-.9-13.5-.9-13.5c0,0-21.6,10.4-23.6,9s-2.4-10.6-2.4-10.6l5.5-1.1Z"/>
  <path class="cls-6" d="M244.2,176.4h6.2l15.2-6s10.8-4.4,9.9,4c-.9,8.4-2.4,19.6-2.4,19.6,0,0-4.9-2.2-7.5-1.5s-.9-13.5-.9-13.5c0,0-21.6,10.4-23.6,9s-2.4-10.6-2.4-10.6l5.5-1.1Z"/>
  <path class="cls-1" d="M253.9,157l7.5,10.7,17.4,14.6s16.1,3.7,13.9,6.4-15.7-2.6-15.7-2.6c0,0-20.1-14.6-20.7-15.7s-7.9-11.5-7.9-11.5l5.5-1.9Z"/>
  <path class="cls-6" d="M253.9,157l7.5,10.7,17.4,14.6s16.1,3.7,13.9,6.4-15.7-2.6-15.7-2.6c0,0-20.1-14.6-20.7-15.7s-7.9-11.5-7.9-11.5l5.5-1.9Z"/>
  <circle class="cls-1" cx="252.8" cy="135.4" r="9.9"/>
  <path class="cls-1" d="M252.1,144.2s-3.3,5.7-4,8.8-9.9-6.2-9.9-6.2l-1.2-3.2s8.7-4.1,8-7.4c-.7-3.3,7.1,7.9,7.1,7.9Z"/>
  <path class="cls-2" d="M249.5,148.4l4.9,9.5s-1.1,4.6-2.9,5.1-9.3-5.7-9.3-5.7l7.3-8.8Z"/>
  <path class="cls-1" d="M253.9,161.4l9,11.9,21.6,16.1s15.7,3.3,12.1,5.7-13.7-2.2-13.7-2.2c0,0-21.8-11.7-26.5-16.5-4.6-4.9-13.2-13-13.2-13l10.6-2Z"/>
  <path class="cls-5" d="M241.8,179.9l2.6,4.2,15.8-5c3.5-1.1,7.2-.7,10.3,1.2,2.8,1.7,4.5,4.5.6,8.6-7.9,8.2-13.2,3.7-13.2,3.7,0,0-26.7,12.6-31.1,6.4-4.4-6.2-4.6-9.3-4.6-9.3,0,0,17-10.6,19.6-9.9Z"/>
  <path class="cls-2" d="M274.8,194.5s7.1,4.6-1.3,6.8-14.6-.9-14.6-.9c0,0-7.3,0-7.3-3.7s2.4-4.2,2.4-4.2l7.5,1.1s9-2.4,13.2.9Z"/>
  <path class="cls-5" d="M260.9,132.9c.7.4,1.4.6,2.1.7.7.1,1.5-.2,1.9-.8.2-.4.2-.8.2-1.2,0-1.2,0-2.5-.8-3.5-.5-.6-1.2-1-1.7-1.6-.3-.4-.6-.9-.9-1.4-1-1.8-2.4-3.6-4.5-4.2-.9-.2-1.7-.3-2.6-.2h-5.1c-.8,0-1.7.1-2.5.3-1.6.5-2.8,1.9-3.9,3.2-.8,1-1.6,2-2.3,3.1-.9,1.6-1.3,3.5-1.3,5.3,0,.5,0,1,.2,1.4.2.4.3.8.6,1.2,1,1.9,1.5,4.2.4,6,1.9-.8,3.7-1.8,5-3.4.6-.7,1-1.6,1.7-2.1s1.9-.6,2.4.2c.2.3.2.7.2,1,0,.6,0,1.2.3,1.7.2.6.8.9,1.4.8,1-.3.9-1.7,1.6-2.4.6-.5,1.4-.4,2.1-.6.8-.3,1.5-1,1.8-1.8.3-.6.3-2.2.8-2.5.6-.4,2.1.2,2.7.5Z"/>
  <path class="cls-2" d="M236.2,142.6c.4-.1.9-.1,1.4,0,1.4.4,4.6,1.4,5.3,2.9.9,2,4,5.1,4,5.1,0,0,4.2,4.2,3.3,7.1s-4.2,6.2-4.2,6.2c0,0,.9,13.7-3.5,17.2-4.4,3.5-6.2,1.1-6.2,4.4s-13.7,13.7-16.3,7.3c0,0,1.3-11.9.9-16.1-.4-4.1.2-29.9,15.4-34Z"/>
  <path class="cls-2" d="M243.3,148.2s13.5,9.9,11,14.1c0,0-8.2,4-9.9,3.7s-8.6-7.9-10.4-8.6-2.6-12.6,9.3-9.3Z"/>
  <path class="cls-5" d="M206.1,157c-2.1.7-4,2.4-4.4,4.5-.2,1,0,2-.2,3.1-.4,2.3-2.2,4.1-3.9,5.8s-3.4,3.6-3.6,6c-.1,2.6,1.7,5,1.4,7.6-.4,3-3.5,4.9-4.3,7.9-.5,1.9.1,4,1.2,5.8,2,3.3,5.4,5.5,9.1,6.7s7.5,1.4,11.4,1.5c4.7,0,9.8-.4,13.3-3.4,2-1.8,3.3-4.3,3.5-6.9.3-3.6-1.2-7.3-.1-10.7.6-2.2,2.3-4.1,2-6.4-.2-2.2-2.2-3.8-3.5-5.5-1.2-1.7-2-3.6-2.7-5.5l-2.5-6.6c-.5-1.3-1-2.7-2.1-3.5-2.1-1.6-5.4-1.3-7.8-1-2.2.3-4.6.2-6.7.9Z"/>
  <path class="cls-10" d="M206.9,176.3s1.1,3.6-7.2,7.8.8,8.6.8,8.6l9.7,2.2s10-1.4,11.1-3.1,3.1-7.2,2.5-8c-.4-.6-.9-1.1-1.4-1.7,0,0-6.7-1.1-6.4-4.2.3-3.1-9.2-1.7-9.2-1.7Z"/>
  <path class="cls-6" d="M206.9,176.3s1.1,3.6-7.2,7.8.8,8.6.8,8.6l9.7,2.2s10-1.4,11.1-3.1,3.1-7.2,2.5-8c-.4-.6-.9-1.1-1.4-1.7,0,0-6.7-1.1-6.4-4.2.3-3.1-9.2-1.7-9.2-1.7Z"/>
  <circle class="cls-10" cx="212.3" cy="173.1" r="8.9" transform="translate(7.4 354.9) rotate(-80.8)"/>
  <path class="cls-11" d="M211.3,191.8s-10.7-.8-10.9-8.2c0,0-3.8-.4-4.9.7s-4.7,1.9-4.7,4.7,6.1,11.1,6.1,11.1c0,0,3.3,11.1,1.9,13s-1.7,6.9-1.7,6.9c0,0,13.9-1.1,16.1,0s11.1,1.1,11.6,0-.6-15-.6-15c0,0,2.5-3.3,1.9-7.2l6.7-7.8s-2.5-7.5-6.4-7.5c0,0-5.3-1.4-5.4-.7s2.6,8.5-9.8,9.8Z"/>
  <path class="cls-10" d="M186.4,216.2s2.5,3.9,8.9,4.7c6.4.8,7.5-1.4,6.9-1.9s-7.2-3.1-7.2-3.1l-3.9-3.1-4.7,3.3Z"/>
  <path class="cls-10" d="M231.8,212.9l-7.2,4.2s-9.4-.6-5.8,2.2c3.6,2.8,10.3,1.7,10.3,1.7l6.4-3.1-3.6-5Z"/>
  <path class="cls-5" d="M195.8,220.1s-6.7,16.4,1.4,18.9c8,2.5,30.2,1.9,35.2-1.4s6.4-7.8,5.5-9.2c-.8-1.4-6.4-5.3-10.3-5.5-3.9-.3-31.9-2.8-31.9-2.8Z"/>
  <path class="cls-7" d="M195.8,220.1s-6.7,16.4,1.4,18.9c8,2.5,30.2,1.9,35.2-1.4s6.4-7.8,5.5-9.2c-.8-1.4-6.4-5.3-10.3-5.5-3.9-.3-31.9-2.8-31.9-2.8Z"/>
  <path class="cls-5" d="M227.2,221.1s23.5-8.5,23.2,1.8c-.3,10.3-15,13-15,13l-4.4.6-24.4.8s.8-4.4-1.1-5c0,0,6.4-1.7,6.7-1.9s16.1-5.8,17.2-6.1,4.4-2.5,6.9-2.2c0,0,2.8-2.2,5.8-1.7l-8.6.6-6.3.2Z"/>
  <path class="cls-6" d="M227.2,221.1s23.5-8.5,23.2,1.8c-.3,10.3-15,13-15,13l-4.4.6-24.4.8s.8-4.4-1.1-5c0,0,6.4-1.7,6.7-1.9s16.1-5.8,17.2-6.1,4.4-2.5,6.9-2.2c0,0,2.8-2.2,5.8-1.7l-8.6.6-6.3.2Z"/>
  <polygon class="cls-5" points="223.1 222.5 226 229.2 244 222.9 245.4 219.3 240.7 218.4 231.2 220.1 227.1 221.2 223.1 222.5"/>
  <polygon class="cls-6" points="223.1 222.5 226 229.2 244 222.9 245.4 219.3 240.7 218.4 231.2 220.1 227.1 221.2 223.1 222.5"/>
  <path class="cls-5" d="M184.7,230.6s5.3,6.7,11.4,8.3c6.1,1.7,9.4-.6,9.4-.6l-1.9-7.8-.8-5-3.6-2.5-7.2-3.3-8.6-2.8s-3.6-.6-3.6,0,3.3,8.9,3.3,8.9l1.7,4.7Z"/>
  <path class="cls-4" d="M191.1,234.2s1.1,8,2.5,8.6,5.5-.6,6.7-1.1,4.9-3.1,4.9-3.1c0,0-13.2-4.9-14-4.4Z"/>
  <polygon class="cls-10" points="216.3 235.1 221.6 235.9 221 242.3 213.7 240.5 216.3 235.1"/>
  <path class="cls-4" d="M219.6,236.8s-2.5,2.9,0,4.6l1.7,1.4s5.5,1.1,6.1,1.7,2.8-.8,2.8-.8c0,0,.3-8.3,0-8.9s-3.6-1.1-3.9-.6-3.6,1.4-5.5.8l-1.1,1.8Z"/>
  <path class="cls-5" d="M197.5,222s-19.4-11.4-22.5-7.2c-3.1,4.2-6.4,10,2.5,14.4,8.9,4.4,36.6,13.6,36.6,13.6,0,0,4.2-6.4,4.2-8,0,0-14.7-6.7-17.2-7.2-2.5-.6-12.5-6.9-13.9-7.5s-3.3-2.2-3.3-2.2l13.6,4.2Z"/>
  <path class="cls-11" d="M191.9,187.7l-1.1.8s-2.5,6.4-2.8,10-3.6,14.7-3.3,16.1.6,2.5,2.2,3.9c0,0,2.2-5,6.1-4.2l4.7-17.2-5.8-9.4Z"/>
  <path class="cls-11" d="M230.7,187.7l2.2,2.5s1.4,3.3,1.4,4.2,2.8,13,3.1,13.6,1.4,7.5,0,9.2-3.9,2.8-3.9,2.8c0,0,1.7-5.8-3.6-6.1l.6-2.2-5-16.6,5.3-7.2Z"/>
  <path class="cls-3" d="M192.5,206.7v14.6c0,1.9,1.5,3.5,3.5,3.5l30.5.5c1.9,0,3.5-1.5,3.6-3.4l.6-14.6c0-1.9-1.4-3.6-3.4-3.6,0,0,0,0,0,0l-31.1-.5c-1.9,0-3.5,1.5-3.6,3.5,0,0,0,0,0,0Z"/>
  <ellipse class="cls-5" cx="212.8" cy="167.7" rx="9.6" ry="5.1"/>
  <circle class="cls-4" cx="211.2" cy="214.4" r="2.2"/>
</svg>